<svg xmlns="http://www.w3.org/2000/svg" viewBox="0 0 691.11 1092.05"><defs><style>.cls-1,.cls-3{fill:#fff;}.cls-1{stroke:#1d1d1b;stroke-miterlimit:10;stroke-width:2.68px;}.cls-2{fill:#24293f;}.cls-4{fill:#1d1d1b;}</style></defs><title>Recurso 3</title><g id="Capa_2" data-name="Capa 2"><g id="Capa_2-2" data-name="Capa 2"><ellipse class="cls-1" cx="346.51" cy="656.15" rx="303.64" ry="331.74"/><path class="cls-1" d="M109.53,727.13C39.09,704.48,1.63,623.7,1.63,623.7L267.27,380.88l-31.16,83.35c-28.42,39.54-43.38,57.28-71.7,117.16A956.37,956.37,0,0,0,109.53,727.13Z"/><path class="cls-1" d="M533.13,739.77C627.26,733.37,689.4,623.7,689.4,623.7L415.23,380.88,378.68,475.2Z"/><path class="cls-1" d="M591.73,796.36s-31.7,199-57.44,270.74a35.46,35.46,0,0,1-33.36,23.6H421.12A35.38,35.38,0,0,1,387.4,1066L354.57,962.76Z"/><path class="cls-1" d="M98.5,796.36s31.7,199,57.44,270.74a35.46,35.46,0,0,0,33.36,23.6h79.81A35.38,35.38,0,0,0,302.83,1066l32.83-103.28Z"/><path class="cls-1" d="M469.09,484.79c-56.66-75.85-91.39-231.21,31.07-279.65,0,0,27.42-12.79,5.48-42S455.84,54.35,345,51.61C234.22,54.35,206.34,133.86,184.41,163.1s5.48,42,5.48,42c122.47,48.44,87.74,203.8,31.08,279.65S-83.39,982.56,345,1008.45C773.45,982.56,525.75,560.65,469.09,484.79Z"/><ellipse class="cls-1" cx="264.5" cy="72.17" rx="42.83" ry="70.83"/><ellipse class="cls-1" cx="425.55" cy="72.17" rx="42.83" ry="70.83"/><ellipse class="cls-2" cx="263.1" cy="72.17" rx="12.69" ry="20.99"/><ellipse class="cls-2" cx="425.55" cy="72.17" rx="12.69" ry="20.99"/><path class="cls-1" d="M346.51,1008.45c428.42-25.89,180.72-447.8,124.06-523.66C442.83,447.65,420.36,384.44,419,331.06a139.44,139.44,0,0,1-144.94,0c.56,55.42-22.66,115-51.62,153.73C165.79,560.65-81.91,982.56,346.51,1008.45Z"/><ellipse class="cls-3" cx="270.85" cy="51.18" rx="7.75" ry="12.82"/><ellipse class="cls-3" cx="433.3" cy="51.18" rx="7.75" ry="12.82"/><path class="cls-4" d="M220.62,210.11l8.46-.29,8.46-.16c5.64-.09,11.28-.15,16.93-.15s11.29.12,16.94.34c2.84.11,5.67.27,8.52.56,1.42.14,2.85.31,4.33.59.38.1.73.14,1.14.27a5.65,5.65,0,0,1,1.34.53l.37.22.22.16.42.31.85.62c9.09,6.63,18.22,13.23,27.47,19.62,4.63,3.18,9.26,6.38,14,9.42,2.35,1.52,4.71,3,7.1,4.43,1.2.7,2.4,1.39,3.6,2a24.76,24.76,0,0,0,3.52,1.59,2.49,2.49,0,0,0,.64.16c.12.06.27,0,.42,0s.45-.14.67-.19l.79-.36a28.81,28.81,0,0,0,3.34-2c2.22-1.55,4.4-3.3,6.57-5.06l13-10.83c4.38-3.58,8.84-7.11,13.53-10.38a67.79,67.79,0,0,1,15.14-8.4,28.14,28.14,0,0,1,4.32-1.21c1.44-.27,2.84-.44,4.26-.67l4.24-.5,4.23-.39c5.65-.45,11.3-.75,16.94-1s11.29-.28,16.94-.34l8.46,0,8.46.12v.35c-11.26.62-22.52,1.18-33.74,2.14-5.61.44-11.21.94-16.78,1.59l-4.17.52-4.14.6c-1.36.25-2.76.47-4.07.75a25,25,0,0,0-3.78,1.18,69.29,69.29,0,0,0-14.18,8.27c-4.51,3.26-8.85,6.79-13.14,10.41s-8.56,7.29-12.94,10.91c-2.19,1.81-4.4,3.6-6.8,5.28a29.66,29.66,0,0,1-3.86,2.38c-.38.17-.74.35-1.14.51a11.35,11.35,0,0,1-1.35.4,5.91,5.91,0,0,1-3.09-.28,28.76,28.76,0,0,1-4.17-1.89c-1.29-.69-2.53-1.41-3.76-2.14-2.46-1.48-4.85-3-7.22-4.57q-7.1-4.68-14-9.62c-9.17-6.6-18.25-13.3-27.16-20.26l-.83-.66-.43-.33a1.3,1.3,0,0,0-.2-.15l-.08,0a2.94,2.94,0,0,0-.63-.25,9.2,9.2,0,0,0-.91-.24c-1.28-.29-2.65-.49-4-.67-2.75-.34-5.55-.58-8.34-.82-5.6-.44-11.22-.73-16.84-1C243.17,210.84,231.9,210.54,220.62,210.11Z"/><path class="cls-1" d="M252.26,432.31a158.3,158.3,0,0,0,94.14,31.92c50.34.2,84.88-24,95.36-31.92"/><path class="cls-1" d="M132.63,652.65a807.32,807.32,0,0,0,217.88,28.86,807.28,807.28,0,0,0,209.88-28.86"/><path class="cls-1" d="M99.81,833.45a602.93,602.93,0,0,0,491.92,0"/></g></g></svg>