<?xml version="1.0" encoding="UTF-8" standalone="no"?>
<!-- Created with Inkscape (http://www.inkscape.org/) -->

<svg
   version="1.1"
   id="svg2"
   xml:space="preserve"
   width="202.7693"
   height="319.74219"
   viewBox="0 0 202.7693 319.74219"
   sodipodi:docname="bd2d9e11d4a66c7191a8b990a2d0af64.ai"
   xmlns:inkscape="http://www.inkscape.org/namespaces/inkscape"
   xmlns:sodipodi="http://sodipodi.sourceforge.net/DTD/sodipodi-0.dtd"
   xmlns="http://www.w3.org/2000/svg"
   xmlns:svg="http://www.w3.org/2000/svg"><defs
     id="defs6"><clipPath
       clipPathUnits="userSpaceOnUse"
       id="clipPath16"><path
         d="M 0,318.59 H 244.892 V 0 H 0 Z"
         id="path14" /></clipPath></defs><sodipodi:namedview
     id="namedview4"
     pagecolor="#ffffff"
     bordercolor="#666666"
     borderopacity="1.0"
     inkscape:pageshadow="2"
     inkscape:pageopacity="0.0"
     inkscape:pagecheckerboard="0" /><g
     id="g8"
     inkscape:groupmode="layer"
     inkscape:label="bd2d9e11d4a66c7191a8b990a2d0af64"
     transform="matrix(1.3333333,0,0,-1.3333333,-63.508299,319.74218)"><g
       id="g10"><g
         id="g12"
         clip-path="url(#clipPath16)"><g
           id="g18"
           transform="translate(54.6543,160.8732)"><path
             d="m 0,0 c 4.541,8.378 15.976,8.915 39.618,11.235 19.886,1.951 39.939,2.313 79.235,2.956 4.146,0.068 11.937,0.228 15.965,-4.73 4.046,-4.981 4.115,-14.895 4.139,-18.331 0.001,-0.099 0,-0.097 0,-4.73 v -8.87 -24.834 c 0,-12.221 -0.218,-24.443 0,-36.661 0.249,-13.998 -1.358,-27.984 -1.183,-41.983 0.064,-5.048 0.228,-11.601 -4.139,-15.965 -4.701,-4.699 -12.095,-4.301 -15.374,-4.14 -23.624,1.162 -47.311,-0.016 -70.957,0.592 -32.541,0.836 -33.826,-4.205 -40.208,0.591 -13.631,10.243 -5.006,31.16 -8.279,89.287 -0.775,13.776 0.169,27.596 0,41.392 C -1.265,-7.462 -2.114,-3.9 0,0"
             style="fill:#e8e100;fill-opacity:1;fill-rule:nonzero;stroke:none"
             id="path20" /></g><g
           id="g22"
           transform="translate(54.6543,160.8732)"><path
             d="m 0,0 c 4.541,8.378 15.976,8.915 39.618,11.235 19.886,1.951 39.939,2.313 79.235,2.956 4.146,0.068 11.937,0.228 15.965,-4.73 4.046,-4.981 4.115,-14.895 4.139,-18.331 0.001,-0.099 0,-0.097 0,-4.73 v -8.87 -24.834 c 0,-12.221 -0.218,-24.443 0,-36.661 0.249,-13.998 -1.358,-27.984 -1.183,-41.983 0.064,-5.048 0.228,-11.601 -4.139,-15.965 -4.701,-4.699 -12.095,-4.301 -15.374,-4.14 -23.624,1.162 -47.311,-0.016 -70.957,0.592 -32.541,0.836 -33.826,-4.205 -40.208,0.591 -13.631,10.243 -5.006,31.16 -8.279,89.287 -0.775,13.776 0.169,27.596 0,41.392 C -1.265,-7.462 -2.114,-3.9 0,0 Z"
             style="fill:none;stroke:#010101;stroke-width:3;stroke-linecap:butt;stroke-linejoin:miter;stroke-miterlimit:10;stroke-dasharray:none;stroke-opacity:1"
             id="path24" /></g><g
           id="g26"
           transform="translate(64.1537,144.5913)"><path
             d="m 0,0 c -0.59,2.218 -1.934,2.041 -5.205,6.325 -3.601,4.716 -3.513,6.946 -4.604,6.938 -2.862,-0.024 -8.826,-15.45 -2.192,-26.111 2.958,-4.754 8.221,-8.241 9.6,-7.354 1.126,0.725 -1.388,3.688 -0.935,8.843 C -2.811,-5.401 1.032,-3.877 0,0"
             style="fill:#eacba0;fill-opacity:1;fill-rule:nonzero;stroke:none"
             id="path28" /></g><g
           id="g30"
           transform="translate(64.1537,144.5913)"><path
             d="m 0,0 c -0.59,2.218 -1.934,2.041 -5.205,6.325 -3.601,4.716 -3.513,6.946 -4.604,6.938 -2.862,-0.024 -8.826,-15.45 -2.192,-26.111 2.958,-4.754 8.221,-8.241 9.6,-7.354 1.126,0.725 -1.388,3.688 -0.935,8.843 C -2.811,-5.401 1.032,-3.877 0,0 Z"
             style="fill:none;stroke:#010101;stroke-width:3;stroke-linecap:butt;stroke-linejoin:miter;stroke-miterlimit:10;stroke-dasharray:none;stroke-opacity:1"
             id="path32" /></g><g
           id="g34"
           transform="translate(181.0415,143.586)"><path
             d="m 0,0 c 0.553,2.237 2.012,2.108 5.383,6.504 3.712,4.84 3.532,7.066 4.711,7.096 3.094,0.078 10.127,-15.129 3.364,-26.017 -3.015,-4.855 -8.569,-8.526 -10.093,-7.687 -1.245,0.684 1.359,3.734 0.672,8.869 C 3.244,-5.299 -0.967,-3.911 0,0"
             style="fill:#eacba0;fill-opacity:1;fill-rule:nonzero;stroke:none"
             id="path36" /></g><g
           id="g38"
           transform="translate(181.0415,143.586)"><path
             d="m 0,0 c 0.553,2.237 2.012,2.108 5.383,6.504 3.712,4.84 3.532,7.066 4.711,7.096 3.094,0.078 10.127,-15.129 3.364,-26.017 -3.015,-4.855 -8.569,-8.526 -10.093,-7.687 -1.245,0.684 1.359,3.734 0.672,8.869 C 3.244,-5.299 -0.967,-3.911 0,0 Z"
             style="fill:none;stroke:#010101;stroke-width:3;stroke-linecap:butt;stroke-linejoin:miter;stroke-miterlimit:10;stroke-dasharray:none;stroke-opacity:1"
             id="path40" /></g><g
           id="g42"
           transform="translate(109.4612,93.3356)"><path
             d="m 0,0 c -1.465,-2.525 2.431,-6.471 0.609,-10.005 -1.165,-2.259 -3.398,-1.891 -3.654,-3.336 -0.482,-2.723 6.71,-8.201 14.615,-8.671 7.851,-0.466 15.455,4.067 15.223,6.67 -0.142,1.601 -3.145,1.328 -4.262,4.003 -1.618,3.871 3.223,7.92 1.826,10.672 -0.964,1.9 -3.836,1.084 -12.178,1.334 C 3.949,0.914 1.089,1.878 0,0"
             style="fill:#eacba0;fill-opacity:1;fill-rule:nonzero;stroke:none"
             id="path44" /></g><g
           id="g46"
           transform="translate(109.4612,93.3356)"><path
             d="m 0,0 c -1.465,-2.525 2.431,-6.471 0.609,-10.005 -1.165,-2.259 -3.398,-1.891 -3.654,-3.336 -0.482,-2.723 6.71,-8.201 14.615,-8.671 7.851,-0.466 15.455,4.067 15.223,6.67 -0.142,1.601 -3.145,1.328 -4.262,4.003 -1.618,3.871 3.223,7.92 1.826,10.672 -0.964,1.9 -3.836,1.084 -12.178,1.334 C 3.949,0.914 1.089,1.878 0,0 Z"
             style="fill:none;stroke:#010101;stroke-width:3;stroke-linecap:butt;stroke-linejoin:miter;stroke-miterlimit:10;stroke-dasharray:none;stroke-opacity:1"
             id="path48" /></g><g
           id="g50"
           transform="translate(64.1546,162.0558)"><path
             d="m 0,0 c 0.088,-3.472 0.732,-8.97 -0.596,-17.739 -1.614,-10.652 -4.27,-12.62 -4.174,-18.331 0.199,-11.886 11.999,-20.726 16.695,-24.243 14.214,-10.649 29.699,-11.311 41.736,-11.826 10.5,-0.45 33.889,-1.45 53.065,13.008 5.214,3.932 12.501,9.427 14.309,18.331 0.849,4.178 0.367,9.29 -0.596,19.513 -0.204,2.169 -0.524,5.509 -1.192,10.052 -0.601,4.084 -3.587,24.369 -7.155,32.522 C 103.619,40.646 64.266,54.643 33.985,40.8 17.019,33.044 -0.383,15.07 0,0"
             style="fill:#eacba0;fill-opacity:1;fill-rule:nonzero;stroke:none"
             id="path52" /></g><g
           id="g54"
           transform="translate(64.1546,162.0558)"><path
             d="m 0,0 c 0.088,-3.472 0.732,-8.97 -0.596,-17.739 -1.614,-10.652 -4.27,-12.62 -4.174,-18.331 0.199,-11.886 11.999,-20.726 16.695,-24.243 14.214,-10.649 29.699,-11.311 41.736,-11.826 10.5,-0.45 33.889,-1.45 53.065,13.008 5.214,3.932 12.501,9.427 14.309,18.331 0.849,4.178 0.367,9.29 -0.596,19.513 -0.204,2.169 -0.524,5.509 -1.192,10.052 -0.601,4.084 -3.587,24.369 -7.155,32.522 C 103.619,40.646 64.266,54.643 33.985,40.8 17.019,33.044 -0.383,15.07 0,0 Z"
             style="fill:none;stroke:#010101;stroke-width:3;stroke-linecap:butt;stroke-linejoin:miter;stroke-miterlimit:10;stroke-dasharray:none;stroke-opacity:1"
             id="path56" /></g><g
           id="g58"
           transform="translate(194.1367,162.5869)"><path
             d="m 0,0 c -0.358,0.514 -0.743,0.404 -5.85,0.246 -3.905,-0.121 -4.637,-0.327 -5.162,-1.107 -0.436,-0.647 -0.445,-1.33 -0.143,-5.634 0.251,-3.573 0.377,-5.36 0.492,-6.289 0.664,-5.365 0.996,-8.048 1.814,-8.294 0.544,-0.163 1.326,0.514 5.611,10.28 C 0.339,-2.645 0.648,-0.929 0,0"
             style="fill:#e8e100;fill-opacity:1;fill-rule:nonzero;stroke:none"
             id="path60" /></g><g
           id="g62"
           transform="translate(194.1367,162.5869)"><path
             d="m 0,0 c -0.358,0.514 -0.743,0.404 -5.85,0.246 -3.905,-0.121 -4.637,-0.327 -5.162,-1.107 -0.436,-0.647 -0.445,-1.33 -0.143,-5.634 0.251,-3.573 0.377,-5.36 0.492,-6.289 0.664,-5.365 0.996,-8.048 1.814,-8.294 0.544,-0.163 1.326,0.514 5.611,10.28 C 0.339,-2.645 0.648,-0.929 0,0 Z"
             style="fill:none;stroke:#010101;stroke-width:3;stroke-linecap:butt;stroke-linejoin:miter;stroke-miterlimit:10;stroke-dasharray:none;stroke-opacity:1"
             id="path64" /></g><g
           id="g66"
           transform="translate(52.289,162.0558)"><path
             d="m 0,0 c 0.323,0.456 0.721,0.389 5.913,0.591 3.969,0.155 4.728,0.03 5.322,-0.591 0.493,-0.516 0.557,-1.09 0.591,-4.73 0.029,-3.022 0.043,-4.533 0,-5.322 -0.248,-4.557 -0.372,-6.835 -1.182,-7.096 -0.539,-0.173 -1.386,0.345 -6.505,8.278 C -0.134,-2.247 -0.584,-0.824 0,0"
             style="fill:#e8e100;fill-opacity:1;fill-rule:nonzero;stroke:none"
             id="path68" /></g><g
           id="g70"
           transform="translate(52.289,162.0558)"><path
             d="m 0,0 c 0.323,0.456 0.721,0.389 5.913,0.591 3.969,0.155 4.728,0.03 5.322,-0.591 0.493,-0.516 0.557,-1.09 0.591,-4.73 0.029,-3.022 0.043,-4.533 0,-5.322 -0.248,-4.557 -0.372,-6.835 -1.182,-7.096 -0.539,-0.173 -1.386,0.345 -6.505,8.278 C -0.134,-2.247 -0.584,-0.824 0,0 Z"
             style="fill:none;stroke:#010101;stroke-width:3;stroke-linecap:butt;stroke-linejoin:miter;stroke-miterlimit:10;stroke-dasharray:none;stroke-opacity:1"
             id="path72" /></g><g
           id="g74"
           transform="translate(50.5151,162.0558)"><path
             d="m 0,0 c 2.484,-2.729 7.358,-2.207 14.783,-0.591 19.607,4.267 30.794,6.702 43.756,15.965 7.249,5.179 9.223,8.328 14.192,8.278 6.784,-0.068 8.692,-5.993 18.33,-13.008 9.267,-6.745 17.728,-8.709 33.705,-12.418 11.677,-2.711 18.715,-4.255 21.878,-0.591 0.611,0.708 2.016,2.697 0,15.374 -1.242,7.81 -2.013,12.654 -4.139,18.33 -6.03,16.098 -18.053,25.779 -21.287,28.383 C 98.612,77.925 59.668,82.971 33.113,65.044 19.36,55.759 11.992,42.379 5.913,31.339 c 0,0 -4.366,-7.929 -6.504,-19.513 C -2.169,3.278 -0.969,1.065 0,0"
             style="fill:#e8e100;fill-opacity:1;fill-rule:nonzero;stroke:none"
             id="path76" /></g><g
           id="g78"
           transform="translate(50.5151,162.0558)"><path
             d="m 0,0 c 2.484,-2.729 7.358,-2.207 14.783,-0.591 19.607,4.267 30.794,6.702 43.756,15.965 7.249,5.179 9.223,8.328 14.192,8.278 6.784,-0.068 8.692,-5.993 18.33,-13.008 9.267,-6.745 17.728,-8.709 33.705,-12.418 11.677,-2.711 18.715,-4.255 21.878,-0.591 0.611,0.708 2.016,2.697 0,15.374 -1.242,7.81 -2.013,12.654 -4.139,18.33 -6.03,16.098 -18.053,25.779 -21.287,28.383 C 98.612,77.925 59.668,82.971 33.113,65.044 19.36,55.759 11.992,42.379 5.913,31.339 c 0,0 -4.366,-7.929 -6.504,-19.513 C -2.169,3.278 -0.969,1.065 0,0 Z"
             style="fill:none;stroke:#010101;stroke-width:3;stroke-linecap:butt;stroke-linejoin:miter;stroke-miterlimit:10;stroke-dasharray:none;stroke-opacity:1"
             id="path80" /></g><g
           id="g82"
           transform="translate(78.6002,172.7829)"><path
             d="M 0,0 C 0.35,6.2 11.195,10.621 24.247,9.885"
             style="fill:none;stroke:#010101;stroke-width:3;stroke-linecap:butt;stroke-linejoin:miter;stroke-miterlimit:10;stroke-dasharray:none;stroke-opacity:1"
             id="path84" /></g><g
           id="g86"
           transform="translate(166.514,171.8077)"><path
             d="M 0,0 C -0.35,6.2 -11.195,10.621 -24.247,9.885"
             style="fill:none;stroke:#010101;stroke-width:3;stroke-linecap:butt;stroke-linejoin:miter;stroke-miterlimit:10;stroke-dasharray:none;stroke-opacity:1"
             id="path88" /></g><g
           id="g90"
           transform="translate(111.7459,116.3692)"><path
             d="M 0,0 C 0.33,-3.58 7.708,-5.821 16.495,-5.01"
             style="fill:none;stroke:#010101;stroke-width:3;stroke-linecap:butt;stroke-linejoin:miter;stroke-miterlimit:10;stroke-dasharray:none;stroke-opacity:1"
             id="path92" /></g><g
           id="g94"
           transform="translate(123.8371,137.2209)"><path
             d="M 0,0 C 4.866,-0.649 8.336,-5.186 7.687,-10.052 7.038,-14.918 2.501,-18.388 -2.365,-17.739"
             style="fill:none;stroke:#010101;stroke-width:3;stroke-linecap:butt;stroke-linejoin:miter;stroke-miterlimit:10;stroke-dasharray:none;stroke-opacity:1"
             id="path96" /></g><g
           id="g98"
           transform="translate(54.063,141.3601)"><path
             d="M 0,0 C 0,-2.288 2.645,-4.139 5.913,-4.139"
             style="fill:none;stroke:#010101;stroke-width:3;stroke-linecap:butt;stroke-linejoin:miter;stroke-miterlimit:10;stroke-dasharray:none;stroke-opacity:1"
             id="path100" /></g><g
           id="g102"
           transform="translate(193.0445,142.6245)"><path
             d="M 0,0 C -0.724,-4.187 -3.655,-7.169 -6.554,-6.668"
             style="fill:none;stroke:#010101;stroke-width:3;stroke-linecap:butt;stroke-linejoin:miter;stroke-miterlimit:10;stroke-dasharray:none;stroke-opacity:1"
             id="path104" /></g><g
           id="g106"
           transform="translate(92.7934,126.4552)"><path
             d="m 0,0 c -9.28,0 -16.831,7.98 -16.831,17.789 0,9.81 7.551,17.79 16.831,17.79 9.28,0 16.831,-7.98 16.831,-17.79 C 16.831,7.98 9.28,0 0,0"
             style="fill:#ffffff;fill-opacity:1;fill-rule:nonzero;stroke:none"
             id="path108" /></g><g
           id="g110"
           transform="translate(92.7935,163.5341)"><path
             d="m 0,0 c -10.124,0 -18.33,-8.636 -18.33,-19.289 0,-10.654 8.206,-19.29 18.33,-19.29 10.124,0 18.33,8.636 18.33,19.29 C 18.33,-8.636 10.124,0 0,0 m 0,-3 c 8.453,0 15.33,-7.307 15.33,-16.289 0,-8.983 -6.877,-16.29 -15.33,-16.29 -8.453,0 -15.33,7.307 -15.33,16.29 C -15.33,-10.307 -8.453,-3 0,-3"
             style="fill:#010101;fill-opacity:1;fill-rule:nonzero;stroke:none"
             id="path112" /></g><g
           id="g114"
           transform="translate(153.0805,126.2355)"><path
             d="m 0,0 c -9.28,0 -16.831,7.98 -16.831,17.789 0,9.81 7.551,17.79 16.831,17.79 9.28,0 16.831,-7.98 16.831,-17.79 C 16.831,7.98 9.28,0 0,0"
             style="fill:#ffffff;fill-opacity:1;fill-rule:nonzero;stroke:none"
             id="path116" /></g><g
           id="g118"
           transform="translate(153.0804,163.3142)"><path
             d="m 0,0 c -10.124,0 -18.33,-8.636 -18.33,-19.289 0,-10.654 8.206,-19.29 18.33,-19.29 10.124,0 18.33,8.636 18.33,19.29 C 18.33,-8.636 10.124,0 0,0 m 0,-3 c 8.453,0 15.33,-7.307 15.33,-16.289 0,-8.983 -6.877,-16.29 -15.33,-16.29 -8.453,0 -15.33,7.307 -15.33,16.29 C -15.33,-10.307 -8.453,-3 0,-3"
             style="fill:#010101;fill-opacity:1;fill-rule:nonzero;stroke:none"
             id="path120" /></g><g
           id="g122"
           transform="translate(106.0979,144.6123)"><path
             d="m 0,0 c 0,-5.715 -4.898,-10.348 -10.939,-10.348 -6.042,0 -10.939,4.633 -10.939,10.348 0,5.715 4.897,10.348 10.939,10.348 C -4.898,10.348 0,5.715 0,0"
             style="fill:#6ba2c2;fill-opacity:1;fill-rule:nonzero;stroke:none"
             id="path124" /></g><g
           id="g126"
           transform="translate(106.0979,144.6123)"><path
             d="m 0,0 c 0,-5.715 -4.898,-10.348 -10.939,-10.348 -6.042,0 -10.939,4.633 -10.939,10.348 0,5.715 4.897,10.348 10.939,10.348 C -4.898,10.348 0,5.715 0,0 Z"
             style="fill:none;stroke:#010101;stroke-width:3;stroke-linecap:butt;stroke-linejoin:miter;stroke-miterlimit:10;stroke-dasharray:none;stroke-opacity:1"
             id="path128" /></g><g
           id="g130"
           transform="translate(162.7013,145.3655)"><path
             d="m 0,0 c 0,-5.715 -4.898,-10.348 -10.939,-10.348 -6.042,0 -10.939,4.633 -10.939,10.348 0,5.715 4.897,10.348 10.939,10.348 C -4.898,10.348 0,5.715 0,0"
             style="fill:#6ba2c2;fill-opacity:1;fill-rule:nonzero;stroke:none"
             id="path132" /></g><g
           id="g134"
           transform="translate(162.7013,145.3655)"><path
             d="m 0,0 c 0,-5.715 -4.898,-10.348 -10.939,-10.348 -6.042,0 -10.939,4.633 -10.939,10.348 0,5.715 4.897,10.348 10.939,10.348 C -4.898,10.348 0,5.715 0,0 Z"
             style="fill:none;stroke:#010101;stroke-width:3;stroke-linecap:butt;stroke-linejoin:miter;stroke-miterlimit:10;stroke-dasharray:none;stroke-opacity:1"
             id="path136" /></g><g
           id="g138"
           transform="translate(151.9912,140.0655)"><path
             d="m 0,0 c -2.723,0 -4.937,2.407 -4.937,5.367 0,2.959 2.214,5.366 4.937,5.366 2.723,0 4.937,-2.407 4.937,-5.366 C 4.937,2.407 2.723,0 0,0"
             style="fill:#010101;fill-opacity:1;fill-rule:nonzero;stroke:none"
             id="path140" /></g><g
           id="g142"
           transform="translate(151.991,152.2992)"><path
             d="m 0,0 c -3.555,0 -6.438,-3.074 -6.438,-6.867 0,-3.792 2.883,-6.867 6.438,-6.867 3.555,0 6.437,3.075 6.437,6.867 C 6.437,-3.074 3.555,0 0,0 m 0,-3 c 1.895,0 3.438,-1.735 3.438,-3.867 0,-2.132 -1.543,-3.867 -3.438,-3.867 -1.895,0 -3.438,1.735 -3.438,3.867 C -3.438,-4.735 -1.895,-3 0,-3"
             style="fill:#010101;fill-opacity:1;fill-rule:nonzero;stroke:none"
             id="path144" /></g><g
           id="g146"
           transform="translate(95.2754,139.7091)"><path
             d="m 0,0 c -2.723,0 -4.937,2.407 -4.937,5.366 0,2.96 2.214,5.367 4.937,5.367 2.723,0 4.937,-2.407 4.937,-5.367 C 4.937,2.407 2.723,0 0,0"
             style="fill:#010101;fill-opacity:1;fill-rule:nonzero;stroke:none"
             id="path148" /></g><g
           id="g150"
           transform="translate(95.2755,151.9424)"><path
             d="m 0,0 c -3.555,0 -6.438,-3.074 -6.438,-6.867 0,-3.792 2.883,-6.867 6.438,-6.867 3.555,0 6.438,3.075 6.438,6.867 C 6.438,-3.074 3.555,0 0,0 m 0,-3 c 1.895,0 3.438,-1.735 3.438,-3.867 0,-2.132 -1.543,-3.867 -3.438,-3.867 -1.895,0 -3.438,1.735 -3.438,3.867 C -3.438,-4.735 -1.895,-3 0,-3"
             style="fill:#010101;fill-opacity:1;fill-rule:nonzero;stroke:none"
             id="path152" /></g><g
           id="g154"
           transform="translate(123.8371,238.6299)"><path
             d="M 0,0 V -53.218"
             style="fill:none;stroke:#010101;stroke-width:3;stroke-linecap:butt;stroke-linejoin:miter;stroke-miterlimit:10;stroke-dasharray:none;stroke-opacity:1"
             id="path156" /></g><g
           id="g158"
           transform="translate(170.8459,222.0734)"><path
             d="m 0,0 c -0.005,-10.124 1.214,-24.624 6.953,-40.841 3.379,-9.55 7.525,-17.433 11.377,-23.611"
             style="fill:none;stroke:#010101;stroke-width:3;stroke-linecap:butt;stroke-linejoin:miter;stroke-miterlimit:10;stroke-dasharray:none;stroke-opacity:1"
             id="path160" /></g><g
           id="g162"
           transform="translate(77.6894,222.9603)"><path
             d="m 0,0 c 0.626,-7.107 0.79,-20.248 -5.185,-35.206 -5.289,-13.242 -13.118,-22.225 -18.146,-27.177"
             style="fill:none;stroke:#010101;stroke-width:3;stroke-linecap:butt;stroke-linejoin:miter;stroke-miterlimit:10;stroke-dasharray:none;stroke-opacity:1"
             id="path164" /></g><g
           id="g166"
           transform="translate(67.0717,108.8383)"><path
             d="M 0,0 V -95.2"
             style="fill:none;stroke:#010101;stroke-width:3;stroke-linecap:butt;stroke-linejoin:miter;stroke-miterlimit:10;stroke-dasharray:none;stroke-opacity:1"
             id="path168" /></g><g
           id="g170"
           transform="translate(177.0541,107.6557)"><path
             d="M 0,0 -1.183,-92.835"
             style="fill:none;stroke:#010101;stroke-width:3;stroke-linecap:butt;stroke-linejoin:miter;stroke-miterlimit:10;stroke-dasharray:none;stroke-opacity:1"
             id="path172" /></g><g
           id="g174"
           transform="translate(159.4557,10.69)"><path
             d="m 0,0 v 0 c -3.577,0 -6.504,2.927 -6.504,6.504 v 28.383 c 0,3.577 2.927,6.504 6.504,6.504 3.577,0 6.504,-2.927 6.504,-6.504 V 6.504 C 6.504,2.927 3.577,0 0,0"
             style="fill:#eacba0;fill-opacity:1;fill-rule:nonzero;stroke:none"
             id="path176" /></g><g
           id="g178"
           transform="translate(159.4557,10.69)"><path
             d="m 0,0 v 0 c -3.577,0 -6.504,2.927 -6.504,6.504 v 28.383 c 0,3.577 2.927,6.504 6.504,6.504 3.577,0 6.504,-2.927 6.504,-6.504 V 6.504 C 6.504,2.927 3.577,0 0,0 Z"
             style="fill:none;stroke:#010101;stroke-width:3;stroke-linecap:butt;stroke-linejoin:miter;stroke-miterlimit:10;stroke-dasharray:none;stroke-opacity:1"
             id="path180" /></g><g
           id="g182"
           transform="translate(81.9946,10.69)"><path
             d="m 0,0 v 0 c -3.577,0 -6.504,2.927 -6.504,6.504 v 28.383 c 0,3.577 2.927,6.504 6.504,6.504 v 0 c 3.577,0 6.504,-2.927 6.504,-6.504 V 6.504 C 6.504,2.927 3.577,0 0,0"
             style="fill:#eacba0;fill-opacity:1;fill-rule:nonzero;stroke:none"
             id="path184" /></g><g
           id="g186"
           transform="translate(81.9946,10.69)"><path
             d="m 0,0 v 0 c -3.577,0 -6.504,2.927 -6.504,6.504 v 28.383 c 0,3.577 2.927,6.504 6.504,6.504 v 0 c 3.577,0 6.504,-2.927 6.504,-6.504 V 6.504 C 6.504,2.927 3.577,0 0,0 Z"
             style="fill:none;stroke:#010101;stroke-width:3;stroke-linecap:butt;stroke-linejoin:miter;stroke-miterlimit:10;stroke-dasharray:none;stroke-opacity:1"
             id="path188" /></g><g
           id="g190"
           transform="translate(104.1286,81.8025)"><path
             d="m 0,0 c 1.474,-0.784 -0.613,-4.317 -3.064,-15.923 -2.816,-13.339 -1.935,-17.564 -6.127,-20.078 -3.293,-1.975 -7.701,-1.684 -12.254,-1.384 -4.545,0.299 -7.297,0.481 -8.425,2.077 -0.881,1.246 -1.397,4.243 10.723,18 C -11.692,-8.845 -2.656,1.412 0,0"
             style="fill:#7388c4;fill-opacity:1;fill-rule:nonzero;stroke:none"
             id="path192" /></g><g
           id="g194"
           transform="translate(104.1286,81.8025)"><path
             d="m 0,0 c 1.474,-0.784 -0.613,-4.317 -3.064,-15.923 -2.816,-13.339 -1.935,-17.564 -6.127,-20.078 -3.293,-1.975 -7.701,-1.684 -12.254,-1.384 -4.545,0.299 -7.297,0.481 -8.425,2.077 -0.881,1.246 -1.397,4.243 10.723,18 C -11.692,-8.845 -2.656,1.412 0,0 Z"
             style="fill:none;stroke:#010101;stroke-width:3;stroke-linecap:butt;stroke-linejoin:miter;stroke-miterlimit:10;stroke-dasharray:none;stroke-opacity:1"
             id="path196" /></g><g
           id="g198"
           transform="translate(139.667,80.6386)"><path
             d="m 0,0 c -0.723,-0.53 1.044,-2.639 4.414,-13.738 2.248,-7.404 3.372,-11.106 3.783,-13.113 1.03,-5.02 0.866,-6.598 2.523,-8.118 1.838,-1.687 4.823,-1.796 10.719,-1.873 5.502,-0.072 8.253,-0.108 8.828,0.624 C 34.526,-30.796 3.113,2.281 0,0"
             style="fill:#7388c4;fill-opacity:1;fill-rule:nonzero;stroke:none"
             id="path200" /></g><g
           id="g202"
           transform="translate(139.667,80.6386)"><path
             d="m 0,0 c -0.723,-0.53 1.044,-2.639 4.414,-13.738 2.248,-7.404 3.372,-11.106 3.783,-13.113 1.03,-5.02 0.866,-6.598 2.523,-8.118 1.838,-1.687 4.823,-1.796 10.719,-1.873 5.502,-0.072 8.253,-0.108 8.828,0.624 C 34.526,-30.796 3.113,2.281 0,0 Z"
             style="fill:none;stroke:#010101;stroke-width:3;stroke-linecap:butt;stroke-linejoin:miter;stroke-miterlimit:10;stroke-dasharray:none;stroke-opacity:1"
             id="path204" /></g><g
           id="g206"
           transform="translate(153.1069,36.129)"><path
             d="m 0,0 c -2.107,0 -3.822,1.715 -3.822,3.822 0,2.108 1.715,3.822 3.822,3.822 h 14.783 c 2.107,0 3.821,-1.714 3.821,-3.822 C 18.604,1.715 16.89,0 14.783,0 Z"
             style="fill:#be318a;fill-opacity:1;fill-rule:nonzero;stroke:none"
             id="path208" /></g><g
           id="g210"
           transform="translate(167.8894,45.2729)"><path
             d="m 0,0 h -14.783 c -2.939,0 -5.321,-2.383 -5.321,-5.322 v 0 c 0,-2.939 2.382,-5.321 5.321,-5.321 H 0 c 2.939,0 5.322,2.382 5.322,5.321 v 0 C 5.322,-2.383 2.939,0 0,0 M 0,-3 C 1.28,-3 2.322,-4.042 2.322,-5.322 2.322,-6.602 1.28,-7.643 0,-7.643 h -14.783 c -1.28,0 -2.321,1.041 -2.321,2.321 0,1.28 1.041,2.322 2.321,2.322 z"
             style="fill:#010101;fill-opacity:1;fill-rule:nonzero;stroke:none"
             id="path212" /></g><g
           id="g214"
           transform="translate(77.4194,36.129)"><path
             d="m 0,0 c -2.107,0 -3.822,1.715 -3.822,3.822 0,2.108 1.715,3.822 3.822,3.822 h 13.6 c 2.108,0 3.822,-1.714 3.822,-3.822 C 17.422,1.715 15.708,0 13.6,0 Z"
             style="fill:#be318a;fill-opacity:1;fill-rule:nonzero;stroke:none"
             id="path216" /></g><g
           id="g218"
           transform="translate(91.0196,45.2729)"><path
             d="m 0,0 h -13.6 c -2.939,0 -5.322,-2.383 -5.322,-5.322 v 0 c 0,-2.939 2.383,-5.321 5.322,-5.321 H 0 c 2.939,0 5.322,2.382 5.322,5.321 v 0 C 5.322,-2.383 2.939,0 0,0 M 0,-3 C 1.28,-3 2.322,-4.042 2.322,-5.322 2.322,-6.602 1.28,-7.643 0,-7.643 h -13.6 c -1.28,0 -2.322,1.041 -2.322,2.321 0,1.28 1.042,2.322 2.322,2.322 z"
             style="fill:#010101;fill-opacity:1;fill-rule:nonzero;stroke:none"
             id="path220" /></g><g
           id="g222"
           transform="translate(103.1414,81.6381)"><path
             d="m 0,0 c 1.421,0.042 2.066,-1.268 4.139,-3.012 0.345,-0.29 5.501,-4.515 12.418,-4.819 1.516,-0.066 6.807,-0.299 11.234,3.012 3.053,2.283 3.589,4.675 5.913,4.819 2.515,0.156 4.562,-2.478 5.914,-4.217 1.783,-2.294 3.317,-5.207 5.321,-13.854 0.315,-1.358 1.206,-5.135 2.365,-12.65 0.903,-5.851 1.355,-8.776 1.774,-12.65 0.826,-7.62 0.351,-7.747 1.183,-20.48 0.119,-1.825 0.484,-7.247 0.591,-14.457 0.118,-7.867 -0.187,-10.01 -1.774,-11.445 -2.688,-2.434 -14.239,-1.862 -10.643,-1.808 9.343,0.371 -31.414,-0.534 -33.113,-0.602 -12.22,-0.485 -15.59,-0.978 -18.331,1.807 -2.771,2.817 -2.745,6.799 -2.365,17.469 0.528,14.821 0.791,22.232 1.183,26.504 0.081,0.89 2.064,19.971 8.278,37.95 C -5.003,-5.801 -2.929,-0.087 0,0"
             style="fill:#7388c4;fill-opacity:1;fill-rule:nonzero;stroke:none"
             id="path224" /></g><g
           id="g226"
           transform="translate(103.1414,81.6381)"><path
             d="m 0,0 c 1.421,0.042 2.066,-1.268 4.139,-3.012 0.345,-0.29 5.501,-4.515 12.418,-4.819 1.516,-0.066 6.807,-0.299 11.234,3.012 3.053,2.283 3.589,4.675 5.913,4.819 2.515,0.156 4.562,-2.478 5.914,-4.217 1.783,-2.294 3.317,-5.207 5.321,-13.854 0.315,-1.358 1.206,-5.135 2.365,-12.65 0.903,-5.851 1.355,-8.776 1.774,-12.65 0.826,-7.62 0.351,-7.747 1.183,-20.48 0.119,-1.825 0.484,-7.247 0.591,-14.457 0.118,-7.867 -0.187,-10.01 -1.774,-11.445 -2.688,-2.434 -14.239,-1.862 -10.643,-1.808 9.343,0.371 -31.414,-0.534 -33.113,-0.602 -12.22,-0.485 -15.59,-0.978 -18.331,1.807 -2.771,2.817 -2.745,6.799 -2.365,17.469 0.528,14.821 0.791,22.232 1.183,26.504 0.081,0.89 2.064,19.971 8.278,37.95 C -5.003,-5.801 -2.929,-0.087 0,0 Z"
             style="fill:none;stroke:#010101;stroke-width:3;stroke-linecap:butt;stroke-linejoin:miter;stroke-miterlimit:10;stroke-dasharray:none;stroke-opacity:1"
             id="path228" /></g><g
           id="g230"
           transform="translate(140.8569,21.8087)"><path
             d="m 0,0 c -2.444,0 -5.739,2.253 -6.821,2.993 -4.583,3.134 -7.677,7.736 -7.331,8.775 10e-4,-0.001 10e-4,-0.001 0.002,-0.001 0.025,0 0.303,0.163 1.113,0.163 2.374,0 6.543,-1.389 9.697,-3.23 C -1.641,7.707 2.333,5.386 2.483,2.757 2.533,1.878 2.142,0.714 1.166,0.237 0.837,0.078 0.456,0 0,0 Z"
             style="fill:#be318a;fill-opacity:1;fill-rule:nonzero;stroke:none"
             id="path232" /></g><g
           id="g234"
           transform="translate(127.8203,35.2386)"><path
             d="m 0,0 c -1.108,0 -1.955,-0.247 -2.358,-0.825 -1.437,-2.059 3.185,-7.744 7.727,-10.85 1.305,-0.893 4.76,-3.255 7.667,-3.255 0.645,0 1.262,0.116 1.824,0.39 1.505,0.734 2.244,2.426 2.157,3.953 -0.196,3.433 -4.563,5.983 -6.564,7.152 C 7.301,-1.595 2.812,0 0,0 m 0.985,-3.076 c 2.203,-0.304 5.456,-1.491 7.955,-2.95 3.303,-1.929 5.013,-3.521 5.082,-4.732 0.026,-0.458 -0.188,-0.945 -0.477,-1.086 -0.146,-0.071 -0.357,-0.086 -0.509,-0.086 -1.314,0 -3.324,0.919 -5.974,2.731 -2.844,1.945 -5.057,4.487 -6.077,6.123"
             style="fill:#010101;fill-opacity:1;fill-rule:nonzero;stroke:none"
             id="path236" /></g><g
           id="g238"
           transform="translate(120.9756,11.6905)"><path
             d="m 0,0 c -0.407,0 -0.778,0.097 -1.102,0.286 -1.012,0.593 -2.203,2.493 -2.129,8.176 0.071,5.561 2.196,10.693 3.25,10.965 C 1.059,19.145 3.137,14.026 3.447,8.725 3.562,6.761 3.831,2.166 1.726,0.585 1.23,0.214 0.602,0 0,0 Z"
             style="fill:#be318a;fill-opacity:1;fill-rule:nonzero;stroke:none"
             id="path240" /></g><g
           id="g242"
           transform="translate(120.969,32.6147)"><path
             d="m 0,0 c -2.498,0 -4.655,-6.963 -4.725,-12.443 -0.025,-1.932 -0.099,-7.749 2.871,-9.489 0.581,-0.34 1.222,-0.492 1.86,-0.492 0.95,0 1.895,0.336 2.627,0.885 2.749,2.065 2.454,7.114 2.318,9.427 C 4.654,-7.033 2.52,-0.056 0.03,0 0.02,0 0.01,0 0,0 m 0.012,-4.02 c 0.832,-1.776 1.756,-5.045 1.944,-8.267 0.224,-3.819 -0.155,-6.124 -1.125,-6.852 -0.233,-0.176 -0.55,-0.285 -0.825,-0.285 -0.137,0 -0.252,0.027 -0.343,0.08 -0.245,0.144 -1.461,1.148 -1.388,6.863 0.044,3.452 0.938,6.707 1.737,8.461"
             style="fill:#010101;fill-opacity:1;fill-rule:nonzero;stroke:none"
             id="path244" /></g><g
           id="g246"
           transform="translate(102.1919,22.1349)"><path
             d="m 0,0 c -0.468,0 -0.894,0.079 -1.264,0.235 -0.811,0.343 -1.683,1.207 -1.68,2.293 0.004,1.174 1.047,3.159 5.995,5.954 3.053,1.725 7.107,2.976 9.638,2.976 1.173,0 1.471,-0.269 1.474,-0.271 C 14.442,10.146 11.063,5.775 6.637,2.841 5.244,1.918 2.35,0 0,0 Z"
             style="fill:#be318a;fill-opacity:1;fill-rule:nonzero;stroke:none"
             id="path248" /></g><g
           id="g250"
           transform="translate(114.8818,35.093)"><path
             d="m 0,0 c -2.83,0 -7.139,-1.342 -10.376,-3.17 -1.683,-0.951 -6.748,-3.812 -6.758,-7.255 -0.005,-1.675 1.187,-3.084 2.596,-3.679 0.587,-0.248 1.211,-0.354 1.849,-0.354 2.803,0 5.892,2.047 7.465,3.091 4.241,2.811 9.198,8.164 7.993,10.345 C 2.376,-0.309 1.358,0 0,0 m -0.719,-3.035 c -1.117,-1.612 -3.476,-4.051 -6.163,-5.832 -1.169,-0.775 -3.908,-2.591 -5.807,-2.591 -0.271,0 -0.494,0.038 -0.681,0.117 -0.422,0.179 -0.765,0.586 -0.764,0.907 0.001,0.284 0.257,1.841 5.233,4.652 2.529,1.428 5.885,2.541 8.182,2.747"
             style="fill:#010101;fill-opacity:1;fill-rule:nonzero;stroke:none"
             id="path252" /></g><g
           id="g254"
           transform="translate(128.9287,40.8937)"><path
             d="m 0,0 c -1.287,0 -1.813,0.265 -1.896,0.358 -0.225,1.053 3.376,5.243 7.949,7.945 1.374,0.811 4.231,2.499 6.542,2.499 0.564,0 1.063,-0.103 1.483,-0.307 C 14.871,10.11 15.697,9.202 15.637,8.117 15.573,6.947 14.429,5.02 9.343,2.484 6.407,1.021 2.566,0 0,0 Z"
             style="fill:#be318a;fill-opacity:1;fill-rule:nonzero;stroke:none"
             id="path256" /></g><g
           id="g258"
           transform="translate(141.5236,53.1957)"><path
             d="m 0,0 c -2.722,0 -5.74,-1.783 -7.305,-2.708 -4.381,-2.588 -9.609,-7.677 -8.519,-9.917 0.4,-0.823 1.612,-1.177 3.229,-1.177 2.822,0 6.88,1.081 10.011,2.641 1.729,0.862 6.935,3.457 7.124,6.895 0.092,1.672 -1.026,3.141 -2.402,3.809 C 1.472,-0.134 0.747,0 0,0 m 0,-3 c 0.335,0 0.614,-0.053 0.828,-0.157 0.413,-0.2 0.734,-0.624 0.717,-0.945 -0.016,-0.283 -0.353,-1.825 -5.468,-4.374 -2.568,-1.28 -5.987,-2.227 -8.312,-2.319 1.2,1.552 3.681,3.865 6.456,5.504 C -4.521,-4.547 -1.902,-3 0,-3"
             style="fill:#010101;fill-opacity:1;fill-rule:nonzero;stroke:none"
             id="path260" /></g><g
           id="g262"
           transform="translate(121.459,44.2003)"><path
             d="m 0,0 c -1.072,0.312 -3.132,5.416 -3.437,10.7 -0.112,1.964 -0.376,6.559 1.731,8.138 0.495,0.371 1.123,0.583 1.724,0.583 0.408,0 0.779,-0.097 1.104,-0.287 C 2.132,18.541 3.32,16.64 3.243,10.958 3.167,5.428 1.061,0.324 0,0"
             style="fill:#be318a;fill-opacity:1;fill-rule:nonzero;stroke:none"
             id="path264" /></g><g
           id="g266"
           transform="translate(121.4765,65.1215)"><path
             d="m 0,0 c -0.949,0 -1.892,-0.335 -2.623,-0.883 -2.752,-2.061 -2.462,-7.11 -2.329,-9.424 0.293,-5.079 2.419,-12.058 4.91,-12.117 0.01,0 0.02,0 0.031,0 2.498,0 4.66,6.959 4.736,12.438 0.027,1.932 0.107,7.749 -2.862,9.492 C 1.282,-0.152 0.64,0 0,0 m 0,-3 c 0.137,0 0.253,-0.027 0.344,-0.081 0.244,-0.143 1.46,-1.149 1.381,-6.863 -0.048,-3.452 -0.944,-6.707 -1.745,-8.459 -0.831,1.776 -1.751,5.046 -1.937,8.268 -0.219,3.819 0.162,6.124 1.133,6.851 C -0.591,-3.109 -0.275,-3 0,-3"
             style="fill:#010101;fill-opacity:1;fill-rule:nonzero;stroke:none"
             id="path268" /></g><g
           id="g270"
           transform="translate(113.271,40.9171)"><path
             d="m 0,0 c -2.461,0 -6.146,0.831 -8.961,2.02 -1.811,0.764 -6.052,2.555 -6.539,5.143 -0.163,0.865 0.075,2.069 0.982,2.668 0.425,0.279 1.001,0.421 1.714,0.421 2.385,0 5.419,-1.545 6.561,-2.127 C -1.287,5.603 2.376,1.427 2.154,0.361 2.085,0.302 1.49,0 0,0 Z"
             style="fill:#be318a;fill-opacity:1;fill-rule:nonzero;stroke:none"
             id="path272" /></g><g
           id="g274"
           transform="translate(100.4665,52.6698)"><path
             d="m 0,0 c -0.932,0 -1.809,-0.189 -2.539,-0.669 -1.398,-0.922 -1.913,-2.695 -1.631,-4.198 0.636,-3.379 5.295,-5.347 7.43,-6.248 2.895,-1.223 6.749,-2.137 9.544,-2.137 1.731,0 3.055,0.35 3.495,1.195 1.161,2.227 -4.154,7.27 -9.057,9.767 C 5.957,-1.636 2.743,0 0,0 m 0,-3 c 2.023,0 4.927,-1.478 5.881,-1.964 3.069,-1.562 5.588,-3.796 6.811,-5.288 -2.282,0.025 -5.658,0.799 -8.265,1.9 -3.524,1.488 -5.424,2.847 -5.648,4.04 -0.085,0.45 0.065,0.961 0.333,1.138 C -0.717,-3.062 -0.402,-3 0,-3"
             style="fill:#010101;fill-opacity:1;fill-rule:nonzero;stroke:none"
             id="path276" /></g><g
           id="g278"
           transform="translate(82.2451,-8.923)"><path
             d="m 0,0 v 0 c -3.577,0 -6.504,2.927 -6.504,6.504 v 26.018 c 0,3.577 2.927,6.504 6.504,6.504 v 0 c 3.577,0 6.504,-2.927 6.504,-6.504 V 6.504 C 6.504,2.927 3.577,0 0,0"
             style="fill:#eacba0;fill-opacity:1;fill-rule:nonzero;stroke:none"
             id="path280" /></g><g
           id="g282"
           transform="translate(82.2451,-8.923)"><path
             d="m 0,0 v 0 c -3.577,0 -6.504,2.927 -6.504,6.504 v 26.018 c 0,3.577 2.927,6.504 6.504,6.504 v 0 c 3.577,0 6.504,-2.927 6.504,-6.504 V 6.504 C 6.504,2.927 3.577,0 0,0 Z"
             style="fill:none;stroke:#010101;stroke-width:3;stroke-linecap:butt;stroke-linejoin:miter;stroke-miterlimit:10;stroke-dasharray:none;stroke-opacity:1"
             id="path284" /></g><g
           id="g286"
           transform="translate(159.7062,-8.923)"><path
             d="m 0,0 v 0 c -3.577,0 -6.504,2.927 -6.504,6.504 v 26.018 c 0,3.577 2.927,6.504 6.504,6.504 3.577,0 6.504,-2.927 6.504,-6.504 V 6.504 C 6.504,2.927 3.577,0 0,0"
             style="fill:#eacba0;fill-opacity:1;fill-rule:nonzero;stroke:none"
             id="path288" /></g><g
           id="g290"
           transform="translate(159.7062,-8.923)"><path
             d="m 0,0 v 0 c -3.577,0 -6.504,2.927 -6.504,6.504 v 26.018 c 0,3.577 2.927,6.504 6.504,6.504 3.577,0 6.504,-2.927 6.504,-6.504 V 6.504 C 6.504,2.927 3.577,0 0,0 Z"
             style="fill:none;stroke:#010101;stroke-width:3;stroke-linecap:butt;stroke-linejoin:miter;stroke-miterlimit:10;stroke-dasharray:none;stroke-opacity:1"
             id="path292" /></g></g></g></g></svg>
