<?xml version="1.0" encoding="UTF-8"?>
<svg id="Capa_2" data-name="Capa 2" xmlns="http://www.w3.org/2000/svg" viewBox="0 0 472.4 326.7">
  <defs>
    <style>
      .cls-1 {
        fill: #b0b08e;
      }

      .cls-2 {
        fill: #0e0e0f;
      }

      .cls-3 {
        fill: #f1f4f9;
      }

      .cls-4 {
        fill: #f0f3f8;
      }

      .cls-5 {
        fill: #e56777;
      }

      .cls-6 {
        fill: #c1ccd3;
      }

      .cls-7 {
        fill: #050505;
      }

      .cls-8 {
        fill: #19191a;
      }

      .cls-9 {
        fill: #060607;
      }

      .cls-10 {
        fill: #eef1f6;
      }

      .cls-11 {
        fill: #b03955;
      }

      .cls-12 {
        fill: #afaf8d;
      }

      .cls-13 {
        fill: #101111;
      }

      .cls-14 {
        fill: #18191b;
      }

      .cls-15 {
        fill: #161719;
      }

      .cls-16 {
        fill: #181919;
      }

      .cls-17 {
        fill: #171719;
      }

      .cls-18 {
        fill: #070707;
      }

      .cls-19 {
        fill: #101010;
      }
    </style>
  </defs>
  <g id="Layer_1" data-name="Layer 1">
    <path class="cls-3" d="M325.5,309.66c.67,3.82,1.36,7.64,2.01,11.46.3,1.76.52,3.53.78,5.43-64.6.13-129.2.13-194,.02.27-1.42.75-2.74,1.23-4.05-.13-.06-.27-.12-.4-.17-.72,1.44-1.44,2.89-2.15,4.33-6.41,0-12.83,0-19.48-.1,1.86-6.09,3.97-12.08,6.08-18.07-3.74,5.63-6.37,11.74-8.3,18.17-.84,0-1.67,0-2.57-.09-3.44-3.98-6.86-7.83-10.16-11.78-.45-.53-.59-1.68-.36-2.36,2.08-6.13,4.28-12.22,6.44-18.33.16-.46.31-.92.46-1.38-3.89,5.71-6.53,11.95-8.53,18.49-.14.02-.28.04-.43.06-.85-2.43-1.7-4.85-2.67-7.64-.11.6-.21.81-.16.97.77,2.49,1.58,4.97,2.33,7.47.18.6.27,1.27.19,1.88-.5,4.24-1.06,8.47-1.6,12.7h-10.09c.82-4.51,1.65-9.05,2.78-13.52,2.93-11.59,6.95-22.82,11.74-33.75,2.93-6.69,5.83-13.43,9.23-19.89,5.01-9.51,10.45-18.79,15.7-28.17.18-.31.34-.64.6-.88.19,5.53-.03,11.01.43,16.43.95,11.23,4.65,21.63,10.52,31.23,2.79,4.57,5.52,9.26,9.84,12.62,8.31,6.45,17.1,12.1,27.08,15.65,4.55,1.62,9.22,2.68,14.1,2.19,7.56-.76,12.19-5.21,14.99-11.96,2.1-5.07,2.5-10.5,3.42-15.82,2.27-13.2,4.35-26.43,6.97-39.56,1.55-7.81,3.97-15.44,6.12-23.12,4.2,1.43,8.26,2.92,12.38,4.22,7.56,2.39,15.32,3.93,23.22,4.42,4.81.3,9.7.21,14.5-.31,4.76-.51,9.58-1.36,14.13-2.82,4.86-1.57,9.43-4.03,14.13-6.1.89,2.03,1.78,4.05,2.7,6.24-2.73,1.56-5.5,2.96-8.33,4.28-.82-.98-1.56-1.89-2.42-2.92-7.73,14.68-18.53,26.37-28.41,38.39-2.88-2.91-5.65-5.71-8.44-8.59-.12-.12-.22-.16-.35-.28-.2-.11-.36-.13-.7-.18.28.25.42.37.59.55.08.11.15.16.28.28,2.52,3.25,4.98,6.41,7.44,9.56-4.01,4.54-7.74,8.78-11.56,13.11-2.62-3.46-5.29-6.57-8.84-8.68,2.59,3.3,5.19,6.59,7.77,9.88-3.47,3.84-6.71,7.42-9.99,11.05-1.73-2.41-3.43-4.62-6.11-6.18,1.54,2.33,2.96,4.4,4.28,6.54.25.41.08,1.08.01,1.67-.33.34-.57.64-.9.99-.31.32-.54.6-.86.94-1.05,1.09-2.01,2.12-3.28,3.48,2.24-.54,4.01-.97,5.9-1.39.61-.1,1.11-.21,1.82-.37.88,3.01,1.75,5.95,2.71,9.22.74-3.49-.3-6.51-.98-9.59,4.18-1.14,8.33-2.28,12.83-3.51.27,3.56.54,6.95.79,10.29,1.06-3.48.8-7.1.52-10.7,4.16-1.48,8.24-2.94,12.69-4.53-.34,4.09-.64,7.84-.95,11.6,1.54-3.91,2.12-7.99,2.15-12.18.55-.25,1.05-.49,1.57-.72,5.97-2.68,11.8-5.6,17.08-9.63.17-.05.22-.12.32-.27.75-.54,1.42-1.03,2.05-1.56,5.16-4.33,9.51-9.26,11.72-15.91,1.12-.71,1.75-.3,1.98.78.16.75.31,1.55.19,2.29-.5,3.1-1.01,6.2-1.69,9.26-1.16,5.17-2.89,10.25-3.59,15.47-1.03,7.66,1.88,13.84,8.68,17.91,4.37,2.61,9.19,3.83,14.17,4.57,2.22.33,4.45.64,6.67.95Z"/>
    <path class="cls-13" d="M94.32,326.7c.44-4.23.99-8.47,1.5-12.7.07-.61-.02-1.29-.19-1.88-.75-2.5-1.56-4.98-2.33-7.47-.05-.16.06-.37.16-.97.97,2.78,1.82,5.21,2.67,7.64.14-.02.28-.04.43-.06,1.99-6.54,4.64-12.78,8.53-18.49-.15.46-.3.92-.46,1.38-2.16,6.1-4.36,12.2-6.44,18.33-.23.69-.09,1.83.36,2.36,3.3,3.95,6.72,7.8,10.02,11.78-.71.09-1.34.09-2.11-.02-3.17-3.7-6.21-7.29-9.37-11.03-.74,3.69-1.49,7.42-2.24,11.14h-.52Z"/>
    <path class="cls-10" d="M94.98,326.7c.6-3.72,1.35-7.45,2.1-11.14,3.16,3.74,6.2,7.33,9.23,11.03-3.73.11-7.46.11-11.33.11Z"/>
    <path class="cls-19" d="M111.4,326.7c1.79-6.43,4.42-12.54,8.16-18.17-2.11,5.99-4.21,11.99-6.22,18.07-.54.1-1.17.1-1.94.1Z"/>
    <path class="cls-16" d="M133.09,326.7c.59-1.44,1.31-2.89,2.03-4.33.13.06.27.12.4.17-.48,1.31-.95,2.63-1.37,4.05-.27.11-.6.11-1.06.11Z"/>
    <path class="cls-4" d="M148.18,167.99c-2.77-1.76-5.59-3.46-8.31-5.29-8.13-5.46-14.81-12.23-18.91-21.27-2.01-4.43-3.06-9.09-3.53-13.95-.86-8.9,1-17.37,3.78-25.68,2.71-8.08,6.51-15.68,10.78-23.05,1.16-2,2.29-4.02,3.54-6.19,2.76-4.28,5.42-8.4,8.07-12.52,3.96-5.71,7.79-11.5,11.9-17.1,4.87-6.64,10.8-12.23,17.5-17.03,7.04-5.05,14.77-8.56,23.16-10.63,5.83-1.44,11.75-1.93,17.74-1.73,1.13.04,2.32,0,3.35.36,1.5.53,2.25-.25,3.18-1.15,4.26-4.12,8.59-8.17,12.85-12.29.78-.75,1.3-.58,1.92.12,2.06,2.3,4.17,4.56,6.22,6.86,2.05,2.31,4.05,4.65,6.07,6.99.2.23.35.49.57.8-2.41,1.99-4.77,3.94-7.28,5.97-.79.61-1.44,1.13-2.18,1.69-3.74,3.48-7.12,7.14-9.68,11.5-5.6,9.51-4.71,18.78,2.57,27.03,3.88,4.39,8.61,7.64,13.7,10.53-.61,1.31-1.21,2.5-1.92,3.76-2.23,1.41-4.44,2.66-6.48,4.13-6.4,4.61-11.93,10.05-15.35,17.28-2.44,5.17-3.66,10.58-.48,15.84,3.89,6.43,9.94,10.28,17.21,11.13,6.66.78,13.48.34,20.23.19,3.15-.07,6.28-.75,9.48-1.16-.18.2-.38.42-.58.64-4.13,4.62-3.96,8.75.94,12.54,2.57,1.99,5.6,3.41,8.5,4.94,2.05,1.08,4.25.9,6.24-.24,1.46-.84,2.88-1.83,4.11-2.97,3.67-3.41,6.24-7.66,8.6-12.02.58-1.06,1.12-2.14,1.79-3.43,1.8,7.84,1.09,15.41.06,23.07,7.37.49,14.57.97,21.9,1.47.97.14,1.81.26,2.64.38-.6,2.44-1.04,4.92-1.82,7.3-2.18,6.71-5.31,12.93-9.63,18.55-6.53,8.5-15.07,13.86-25.36,16.56-.2.05-.39.12-.79.26-.87.13-1.53.21-2.19.25-2.3.14-4.63.54-6.91.36-5.77-.45-11.52-1.18-17.28-1.77-5.51-.56-11.02-1.1-16.45-1.73,3.38-1.66,6.68-3.23,9.96-4.82,1.7-.82,3.02-2.15,3.53-3.92.62-2.14,1.32-4.44,1.17-6.61-.71-10.19-1.69-20.36-2.6-30.54-.19-2.1-.33-4.23-.79-6.29-.69-3.1-3.69-5.64-7.47-2.55-5.07,4.15-10.39,7.98-15.56,12.02-1.15.89-1.91.77-2.65-.37-.22-.35-.44-.69-.66-1.04-4.63-7.38-9.25-14.76-13.89-22.13-1.98-3.15-4.46-3.33-6.83-.51-4.88,5.82-9.74,11.64-14.61,17.46-2.32,2.77-2.55,2.75-4.7-.18-3.7-5.03-7.38-10.07-11.12-15.08-1.83-2.46-4.67-2.22-6.08.5-.35.67-.56,1.44-.73,2.19-1.85,8.03-3.68,16.07-5.57,24.19-3.52,4.22-7.01,8.32-10.43,12.48-1.56,1.89-2.96,3.91-4.44,5.87M149.38,107.01c-.04-.08-.09-.16-.13-.24-.02.08-.09.2-.06.22.08.06.19.09.18.36.97,2.42,1.94,4.84,3.06,7.65-2.07,1.8-4.37,3.81-6.78,5.91-2.82-4.85-5.46-9.4-8.11-13.96-.19.09-.38.19-.57.28,2.24,4.86,4.48,9.72,6.83,14.82-4.13,2.11-8.38,4.28-12.76,6.52-2.24-4.85-4.37-9.46-6.49-14.07l-.45.17c1.64,4.83,3.29,9.66,4.98,14.62-2.99,1.22-6.16,2.51-9.33,3.8l.11.39c3.37-.94,6.74-1.89,10.18-2.85,2.49,4.5,5.09,8.97,9.68,11.88-2.76-4.17-5.47-8.28-8.13-12.29,4.7-2.36,9.06-4.54,13.49-6.76,1.91,2.53,3.72,5.44,6.85,7.13-1.84-2.76-3.68-5.52-5.1-7.65,2.38-2.43,4.54-4.65,6.67-6.83.51.59,1.35,1.55,2.19,2.52.1-.08.2-.15.31-.23-.43-.67-.81-1.38-1.29-2.02-.83-1.11-1.18-2.2-.34-3.49.25-.39.23-.95.34-1.43-.06-.02-.13-.03-.19-.05-.41.69-.81,1.38-1.3,2.22-1.31-2.25-2.54-4.37-3.83-6.62M159.34,70.17c-2.4,7.15-2.77,14.45-1.46,21.82.83,4.71,2.3,9.21,5.62,12.85,3.49,3.82,8.22,3.98,11.77.22,1.42-1.51,2.67-3.33,3.49-5.22,3.63-8.32,3.92-16.97,2.07-25.75-.82-3.86-2.19-7.51-4.76-10.6-3.86-4.64-9.31-4.71-13.02.03-1.49,1.91-2.43,4.26-3.71,6.64M205.57,54.92q1.03,1.37,1.83.98c-2.26-3.46-5.21-6.2-8.87-8.56,1.4-2.73,2.78-5.37,4.11-8.03.16-.33.15-.74.22-1.12-.23-.07-.46-.15-.69-.22-1.47,2.97-2.94,5.94-4.43,8.96-5.43-3.05-11.47-4.06-17.88-4.15.2-.59.28-1.05.5-1.43,1.38-2.4,2.81-4.78,4.2-7.17.2-.34.27-.74.41-1.12-.16-.06-.32-.11-.48-.17-2.38,2.61-4.14,5.61-5.3,8.95-.28.8-.65,1.07-1.52,1.12-1.95.12-3.89.42-5.83.68-.27.04-.51.29-.77.45.04.14.08.28.12.42,2.39-.26,4.78-.51,7.32-.78-.91,4.35-1.19,8.47.37,12.56-.23-4.22-.79-8.46.77-12.6,5.82.02,11.41.9,16.66,3.49.98.48,1.33.93,1,2.1-1.02,3.57-1.19,7.22-.41,10.87.1.45.48.84.73,1.26.15-.08.3-.16.45-.24-1.15-4.24-.92-8.43.41-12.7,2.81,1.68,5,3.82,7.08,6.42Z"/>
    <path class="cls-5" d="M148.13,168.09c1.52-2.05,2.93-4.07,4.49-5.96,3.42-4.16,6.91-8.26,10.49-12.54.37-.41.61-.67.94-.96,2.58-2.6,5.27-5.03,9.05-4.97,2.84.04,5.77.45,8.47,1.3,6.22,1.97,11.58,5.59,16.66,9.62.82.65,1.48.79,2.49.39,2.68-1.07,5.39-2.07,8.14-2.94,7.94-2.51,16.03-3.95,24.39-2.67,6.47,1,11.96,3.79,15.83,9.27,4.79,6.79,5.31,17.81-1.27,23.27-.41.24-.73.46-1.16.68-1.35.3-2.58.65-3.83.88-3.34.63-6.29,1.99-8.85,4.4-.88.84-1.66,1.63-2.51,2.49-.43.44-.82.79-1.13,1.19-6.24,7.91-9.78,17.12-12.78,26.59-2.03,7.71-4.45,15.35-6,23.15-2.61,13.13-4.69,26.36-6.97,39.56-.92,5.32-1.31,10.75-3.42,15.82-2.8,6.75-7.43,11.21-14.99,11.96-4.88.49-9.55-.57-14.1-2.19-9.98-3.55-18.78-9.2-27.08-15.65-4.33-3.36-7.05-8.05-9.84-12.62-5.87-9.6-9.57-20-10.52-31.23-.46-5.42-.25-10.91-.35-16.5.44-7.07,1.87-13.82,3.77-20.48,2.63-9.23,6.32-18.05,10.88-26.47,2.83-5.22,6.1-10.2,9.22-15.38M194.8,157.43c-.1.13-.2.26-.3.38.08.03.23.09.24.07.09-.15.16-.31.39-.47.09-.04.18-.08.27-.12-.03-.04-.06-.08-.08-.12-.11.08-.22.16-.52.26M169.29,183.36c-4.71,8.81-6.96,18.12-5.69,28.16,8.93-18.46,16.84-37.46,30.28-53.35-10.11,6.45-18.51,14.54-24.59,25.2Z"/>
    <path class="cls-15" d="M285.23,275.94c0,.11-.05.18-.34.22-1.09-.41-1.78-1.5-3.06-.55-1.81,1.35-3.69,2.64-5.65,3.75-3.17,1.79-6.43,3.42-9.76,5.17-.23-1.83-.34-3.41-.63-4.96-.87-4.69-2.54-9.09-4.98-13.2-.2-.34-.11-1.12.15-1.43,4.07-4.76,8.3-9.39,12.27-14.23,3.84-4.68,7.38-9.6,11.12-14.36,2.1-2.68,3.13-6.16,6.09-8.2,2.76-1.4,5.53-2.8,8.35-4.29,2.98-1.34,5.88-2.66,8.85-3.81,5.04-1.96,10.15-3.6,15.61-4.11,2.33-.22,4.48,0,6.68.6,3.5.94,5.65,4.33,5.43,7.64-.29,4.32-1.02,8.61-1.65,12.9-.49,3.33-1.17,6.63-1.69,9.96-.56,3.59-1.31,7.17-1.47,10.78-.18,4.13-.73,8.37,1.21,12.33,1.29,2.64,3.52,3.98,6.3,3.78,3.29-.23,6.61-.74,9.81-1.55,4.82-1.23,9.61-2.64,14.29-4.31,6.73-2.41,12.29-6.55,16.89-12.08,4.69-5.63,7.54-12.24,10.7-18.71,2.67-5.47,4.92-11.2,8.8-15.99,2.72-3.36,6.48-5.04,10.6-6.25,4.63-1.36,7.78.38,10.38,4,2.75,3.83,5.42,7.74,8.38,11.41,2.56,3.18,5.42,6.18,9.61,7.25,2.8.72,5.64.6,8.3-.62,5.63-2.56,10.29-6.42,14.13-11.23,4.03-5.04,7.93-10.18,11.89-15.27.05-.07.17-.09.54-.26-.32,1.17-.6,2.15-.85,3.14-.26,1.02-.42,2.06-.73,3.06-2.82,9.04-5.99,17.95-10.11,26.5-2.87,5.97-6.12,11.7-10.12,16.96-3.73,4.9-8.09,9.2-13.73,11.95-6.83,3.33-13.77,3.31-20.48-.03-3.87-1.93-7.37-4.6-11.06-6.91-4.5-2.81-8.73-2.72-11.79,1.09-2.04,2.55-3.61,5.53-5.03,8.49-2.09,4.35-3.71,8.92-5.79,13.28-1.48,3.09-3.21,6.1-5.14,8.94-3.39,4.97-7.94,8.28-14.1,9.17-4.57.66-9.08,1.69-13.64,2.41-2.45.38-4.95.52-7.44.64-5.53.26-11.06.43-16.74.65-2.37-.31-4.59-.62-6.81-.94-4.98-.73-9.8-1.95-14.17-4.57-6.8-4.07-9.71-10.25-8.68-17.91.7-5.22,2.43-10.3,3.59-15.47.69-3.06,1.19-6.16,1.69-9.26.12-.74-.03-1.54-.19-2.29-.23-1.08-.86-1.49-2.1-.78-.64.4-1.21.61-1.54,1.02-3.19,3.94-6.4,7.87-9.48,11.89-1.07,1.4-1.82,3.05-2.72,4.59Z"/>
    <path class="cls-1" d="M143.54,59.96c-2.59,4.21-5.24,8.33-7.99,12.5-4.49-.28-8.88-.57-13.27-.94-5.6-.48-11.21-.94-16.8-1.57-6.39-.72-12.76-1.54-19.12-2.45-7.46-1.07-14.97-2-22.35-3.5-8.68-1.76-17.28-3.92-25.85-6.18-7.33-1.93-14.43-4.61-21.04-8.34-3.45-1.95-6.77-4.25-9.78-6.81-3.96-3.36-6.04-7.92-6.73-13.07C.3,27.38-.02,25.13,0,22.89c.06-4.98,2.52-6.1,7-5,5.01,1.23,9.16,4.26,13.27,7.2,5.19,3.71,10.18,7.7,15.29,11.52,3.47,2.6,6.97,5.17,10.52,7.66,1.03.72,2.26,1.2,3.45,1.64,1.48.54,2.39-.01,2.15-1.5-.33-2.04-.98-4.03-1.65-5.99-.41-1.2-1.06-2.34-1.71-3.44-1.28-2.15-1.16-4.43-.65-6.7.62-2.79,2.46-3.8,5.28-3.11,3,.73,5.57,2.33,7.89,4.23,4.08,3.35,7.96,6.93,11.98,10.35,4.48,3.81,8.93,7.69,14.3,10.23,1.75.83,3.67,2.03,5.65,1.03,1.18-.59,2.4-1.71,2.91-2.89,1.33-3.1,1.24-6.48,1.37-9.81.05-1.32.38-2.78,1.06-3.9,1.23-2.03,3.42-1.84,5.17-1.03,3.42,1.57,6.86,3.23,9.95,5.34,10.16,6.94,20.17,14.1,30.3,21.26Z"/>
    <path class="cls-6" d="M217.66,218.14c2.88-9.5,6.42-18.71,12.66-26.62.32-.4.7-.75,1.26-1.18,3.47-1.02,6.73-1.97,9.98-2.92,5.51.55,11.02,1.08,16.53,1.64,5.76.59,11.51,1.32,17.28,1.77,2.28.18,4.61-.22,6.91-.36.66-.04,1.32-.12,2.12-.16.91,1.85,1.68,3.69,2.46,5.52,3.04,7.17,6.09,14.33,9.14,21.61-4.69,2.19-9.27,4.65-14.13,6.22-4.55,1.47-9.37,2.31-14.13,2.82-4.79.51-9.68.6-14.5.31-7.9-.49-15.66-2.03-23.22-4.42-4.12-1.3-8.17-2.79-12.38-4.22Z"/>
    <path d="M322.19,147.51c-.94-.09-1.78-.21-2.73-.45.72-1.22,1.6-2.29,2.4-3.42,6-8.55,8.98-18.32,11.34-28.34.25-1.07-.19-1.37-1.25-1.23-4.02.52-8,.53-11.86-.98-3.79-1.49-6.32-4.1-7.37-8.11-1.01-3.85-.59-7.63.22-11.44.53-2.48,1.63-4.51,3.47-6.36,2.12-2.13,3.86-4.65,5.64-7.1,1.29-1.78.91-2.94-.75-4.33-1.88-1.58-3.88-3.12-5.35-5.04-2.52-3.28-3.85-7.05-2.83-11.29.87-3.63,3.51-5.8,6.45-7.74.66-.43,1.46-1.2,1.52-1.88.25-2.84-.49-5.41-2.8-7.33-.88-.73-1.5-.93-2.35.26-2.91,4.12-5.98,8.15-10.42,10.81-4.58,2.74-9.26,3.2-14.02.39-3.69-2.18-6.38-5.36-8.64-8.88-3.84-5.98-6.57-12.48-8.56-19.29-.22-.73.2-1.69.45-2.51.21-.68.6-1.31.91-1.97-.12-.14-.24-.28-.36-.43-2.17.72-4.37,1.34-6.49,2.18-4.91,1.94-9.48,4.75-14.91,5.28-5.95.59-11.12-.82-15.18-5.42.64-.53,1.28-1.05,2.03-1.56,2.73,2.61,5.84,4.04,9.55,4.34,5.04.4,9.39-1.64,13.83-3.55,2.95-1.27,5.97-2.43,9.03-3.42,1.12-.37,2.46-.27,3.67-.13,1.44.17,2.32,2.41,1.3,3.99-1.34,2.07-.83,3.84-.1,5.9,2.2,6.24,4.98,12.17,8.85,17.54,1.98,2.75,4.45,5.01,7.71,6.36,4.03,1.67,7.45.43,10.59-1.93,3.93-2.95,7.02-6.7,9.49-10.94.54-.92,1.11-1.22,2.26-.84,4.2,1.42,6.82,5.33,6.73,9.47-.02.98-.1,1.97.02,2.94.16,1.35-.42,2.01-1.62,2.53-2.7,1.17-5.05,2.86-6.07,5.74-1.19,3.36-.21,6.52,1.82,9.22,1.28,1.71,2.99,3.14,4.65,4.52,1.92,1.6,3.76,3.3,2.97,6-.51,1.76-1.57,3.44-2.68,4.93-1.73,2.31-3.87,4.31-5.55,6.66-.91,1.27-1.36,2.94-1.77,4.5-.8,3.05-1.01,6.16-.14,9.23,1.14,4,4.11,5.99,7.96,6.82,3.22.69,6.48.6,9.74.04,1.18-.2,2.4-.24,3.85-.37-1.02,4.38-1.85,8.58-3.01,12.7-1.69,5.99-3.73,11.87-7.03,17.2-1.42,2.29-3.01,4.47-4.62,6.74Z"/>
    <path class="cls-18" d="M290.38,228.07c-2.9,2.11-3.92,5.59-6.02,8.27-3.74,4.76-7.28,9.68-11.12,14.36-3.97,4.84-8.2,9.47-12.27,14.23-.26.31-.35,1.09-.15,1.43,2.44,4.11,4.11,8.51,4.98,13.2.29,1.55.4,3.13.63,4.96,3.33-1.75,6.59-3.38,9.76-5.17,1.96-1.11,3.84-2.4,5.65-3.75,1.27-.95,1.96.13,2.98.55-5.09,4.03-10.92,6.95-16.89,9.63-.51.23-1.02.47-1.57.72-.02,4.2-.61,8.27-2.15,12.18.31-3.76.62-7.51.95-11.6-4.46,1.59-8.54,3.04-12.69,4.53.28,3.6.55,7.22-.52,10.7-.26-3.35-.52-6.73-.79-10.29-4.5,1.23-8.64,2.36-12.83,3.51.68,3.09,1.72,6.1.98,9.59-.96-3.27-1.83-6.22-2.71-9.22-.72.16-1.21.27-1.81.27.34-.4.78-.69,1.62-1.22-.85-.96-1.63-1.85-2.41-2.74-.02-.55.15-1.22-.1-1.62-1.32-2.14-2.74-4.21-4.28-6.54,2.68,1.56,4.38,3.76,6.11,6.18,3.28-3.63,6.52-7.21,9.99-11.05-2.58-3.28-5.18-6.58-7.77-9.88,3.55,2.11,6.22,5.22,8.84,8.68,3.82-4.33,7.56-8.57,11.56-13.11-2.45-3.15-4.91-6.31-7.36-9.61.05-.17.1-.2.14-.24,2.77,2.8,5.54,5.6,8.42,8.51,9.88-12.02,20.68-23.71,28.41-38.39.85,1.04,1.6,1.94,2.42,2.92M263.04,276.19c-1.19-3.03-2.37-6.05-3.54-9.05-.47.16-.53.16-.56.19-3.62,3.8-7.25,7.59-10.84,11.41-.2.21-.23.78-.1,1.07,1.51,3.35,3.06,6.69,4.74,10.33,3.58-1.47,7.51-3.07,11.41-4.75.27-.11.44-.85.38-1.26-.42-2.58-.92-5.14-1.48-7.94M239.62,287.47c-.33.33-.66.65-.98.99-.78.82-1.9,1.54-2.21,2.51-.22.68.74,1.7,1.06,2.6.35.99.87,1.22,1.86.89,3.32-1.1,6.66-2.14,10-3.19.92-.29,1.2-.82.82-1.74-1.21-2.98-2.4-5.97-3.73-9.28-2.44,2.59-4.56,4.83-6.83,7.22Z"/>
    <path class="cls-9" d="M285.33,275.9c.8-1.5,1.55-3.15,2.62-4.55,3.09-4.02,6.29-7.95,9.48-11.89.33-.41.9-.63,1.47-.93-2.01,6.56-6.37,11.49-11.53,15.82-.63.53-1.3,1.01-2.05,1.56Z"/>
    <path class="cls-14" d="M233.92,292.26c.87.84,1.65,1.73,2.5,2.69-.83.54-1.28.83-1.74,1.22-1.79.53-3.56.96-5.8,1.5,1.27-1.36,2.23-2.39,3.39-3.48.41-.37.62-.68.83-.98.24-.3.49-.6.82-.94Z"/>
    <path class="cls-18" d="M233.03,293.25c-.13.26-.35.57-.67.88.13-.27.36-.55.67-.88Z"/>
    <path class="cls-18" d="M250.62,254.98c-.14-.12-.27-.24-.55-.5.34.05.51.07.65.24-.02.14-.1.26-.1.26Z"/>
    <path class="cls-18" d="M250.75,254.81c.15-.02.24.02.37.14-.02.11-.06.15-.18.23-.14.01-.21-.04-.29-.15-.03-.05.05-.17.1-.22Z"/>
    <path class="cls-15" d="M238.61,22.92c4.16,4.57,9.33,5.97,15.28,5.38,5.43-.54,10-3.35,14.91-5.28,2.12-.84,4.33-1.46,6.49-2.18.12.14.24.28.36.43-.31.65-.7,1.28-.91,1.97-.25.82-.67,1.78-.45,2.51,1.99,6.8,4.72,13.31,8.56,19.29,2.26,3.52,4.95,6.7,8.64,8.88,4.76,2.81,9.44,2.35,14.02-.39,4.44-2.66,7.5-6.68,10.42-10.81.84-1.19,1.47-.99,2.35-.26,2.31,1.92,3.05,4.5,2.8,7.33-.06.67-.86,1.45-1.52,1.88-2.94,1.94-5.58,4.11-6.45,7.74-1.02,4.24.31,8.01,2.83,11.29,1.48,1.92,3.48,3.47,5.35,5.04,1.66,1.39,2.04,2.55.75,4.33-1.77,2.45-3.52,4.97-5.64,7.1-1.84,1.85-2.94,3.88-3.47,6.36-.82,3.81-1.23,7.59-.22,11.44,1.05,4.01,3.58,6.62,7.37,8.11,3.85,1.51,7.84,1.51,11.86.98,1.06-.14,1.5.17,1.25,1.23-2.37,10.01-5.34,19.78-11.34,28.34-.79,1.13-1.68,2.2-2.53,3.4-7.21-.38-14.4-.86-21.77-1.35,1.03-7.66,1.75-15.23-.06-23.07-.67,1.29-1.22,2.36-1.79,3.43-2.37,4.37-4.93,8.61-8.6,12.02-1.23,1.14-2.65,2.13-4.11,2.97-1.98,1.14-4.18,1.32-6.24.24-2.9-1.53-5.93-2.95-8.5-4.94-4.9-3.79-5.07-7.92-.94-12.54.2-.22.4-.44.58-.64-3.19.41-6.33,1.09-9.48,1.16-6.74.16-13.57.59-20.23-.19-7.27-.85-13.32-4.7-17.21-11.13-3.19-5.27-1.96-10.67.48-15.84,3.42-7.24,8.95-12.67,15.35-17.28,2.04-1.47,4.25-2.72,6.47-4-2.44,7.74-2.87,15.53-1.15,23.41.91,4.17,2.32,8.16,5.53,11.21,2.88,2.73,6.47,2.77,9.21-.1,1.4-1.46,2.63-3.22,3.46-5.07,3.33-7.44,3.7-15.26,2.36-23.19-.76-4.52-2.11-8.84-5.3-12.33-3.09-3.38-6.91-3.45-10.12-.19-.72.73-1.38,1.51-2.06,2.26-5.09-2.78-9.83-6.02-13.7-10.42-7.28-8.25-8.17-17.52-2.57-27.03,2.56-4.35,5.94-8.02,9.68-11.5M268.2,122.84l.08.02s-.02-.05-.08-.02Z"/>
    <path class="cls-12" d="M245.2,71.98c.69-.87,1.35-1.65,2.06-2.37,3.21-3.26,7.03-3.19,10.12.19,3.19,3.49,4.53,7.82,5.3,12.33,1.34,7.93.97,15.75-2.36,23.19-.82,1.84-2.06,3.6-3.46,5.07-2.74,2.87-6.33,2.83-9.21.1-3.21-3.04-4.61-7.04-5.53-11.21-1.73-7.88-1.3-15.67,1.24-23.48.62-1.33,1.22-2.52,1.83-3.83Z"/>
    <path class="cls-7" d="M241.65,187.33c-3.35,1.04-6.6,1.99-9.99,2.94.65-.8,1.43-1.59,2.43-2.43,4.24-1.59,8.25-3.13,12.26-4.69.19-.07.28-.39.41-.59.32-.22.63-.43,1.17-.66,5.1-1.37,6.61-5.59,6.18-10.33-.33-3.57-.78-7.13-1.14-10.7-.35-3.52-.65-7.05-.99-10.57-.38-3.93-.75-7.86-1.21-11.78-.14-1.21-.4-2.44-.86-3.55-.56-1.33-1.19-1.39-2.37-.49-5.46,4.11-10.92,8.23-16.38,12.35-2.03,1.53-4.42,1.28-5.68-.73-2.82-4.49-5.57-9.03-8.35-13.54-2.11-3.42-4.2-6.85-6.37-10.23-1.19-1.86-1.69-1.92-3.12-.32-2.74,3.07-5.4,6.21-8.08,9.33-2.55,2.96-5.2,5.85-7.56,8.95-1.55,2.04-4.69,2.13-6.12-.08-1.59-2.46-3.39-4.78-5.09-7.17-2.15-3.02-4.26-6.06-6.43-9.06-1.34-1.86-2.7-1.73-3.72.31-.21.41-.34.86-.46,1.3-1.31,4.86-2.61,9.73-3.92,14.6-.76,2.83-1.52,5.65-2.29,8.48-.24.26-.48.52-.78.84,1.77-7.97,3.6-16.01,5.45-24.04.17-.75.38-1.52.73-2.19,1.41-2.72,4.25-2.96,6.08-.5,3.73,5.01,7.42,10.05,11.12,15.08,2.15,2.93,2.38,2.95,4.7.18,4.88-5.82,9.74-11.64,14.61-17.46,2.36-2.82,4.84-2.64,6.83.51,4.64,7.37,9.26,14.75,13.89,22.13.22.35.44.7.66,1.04.74,1.15,1.5,1.27,2.65.37,5.17-4.03,10.49-7.87,15.56-12.02,3.77-3.09,6.78-.55,7.47,2.55.46,2.05.6,4.18.79,6.29.91,10.18,1.89,20.35,2.6,30.54.15,2.17-.55,4.46-1.17,6.61-.51,1.77-1.83,3.09-3.53,3.92-3.29,1.59-6.58,3.16-9.96,4.82Z"/>
    <path class="cls-7" d="M159.38,70.05c1.24-2.26,2.17-4.61,3.67-6.53,3.71-4.75,9.16-4.67,13.02-.03,2.57,3.09,3.94,6.74,4.76,10.6,1.86,8.78,1.56,17.44-2.07,25.75-.83,1.9-2.07,3.72-3.49,5.22-3.55,3.76-8.29,3.6-11.77-.22-3.32-3.64-4.78-8.14-5.62-12.85-1.31-7.38-.94-14.68,1.5-21.94M175.14,101.13c.67-1.39,1.46-2.74,1.99-4.18,2.29-6.28,2.55-12.79,1.66-19.33-.6-4.46-1.85-8.74-4.76-12.38-2.72-3.41-6.48-3.36-9.05,0-3.44,4.48-4.73,9.77-5,15.28-.15,3.18-.02,6.39.31,9.56.43,4.19,1.63,8.21,4.12,11.66,1.17,1.63,2.52,3.25,4.94,3.31,2.83.07,4.17-1.89,5.78-3.92Z"/>
    <path class="cls-2" d="M149.44,107.16c1.23,2.11,2.46,4.23,3.78,6.48.49-.83.89-1.53,1.3-2.22.06.02.13.03.19.05-.11.48-.09,1.04-.34,1.43-.84,1.29-.49,2.38.34,3.49.48.64.86,1.34,1.29,2.02-.1.08-.2.15-.31.23-.84-.97-1.68-1.94-2.19-2.52-2.13,2.18-4.3,4.4-6.67,6.83,1.42,2.13,3.26,4.89,5.1,7.65-3.12-1.69-4.93-4.6-6.85-7.13-4.43,2.22-8.79,4.41-13.49,6.76,2.65,4.01,5.37,8.12,8.13,12.29-4.59-2.91-7.18-7.38-9.68-11.88-3.43.96-6.81,1.9-10.18,2.85l-.11-.39c3.17-1.29,6.33-2.58,9.33-3.8-1.69-4.96-3.33-9.79-4.98-14.62l.45-.17c2.13,4.61,4.25,9.22,6.49,14.07,4.38-2.24,8.63-4.41,12.76-6.52-2.35-5.09-4.59-9.95-6.83-14.82.19-.09.38-.19.57-.28,2.65,4.56,5.29,9.11,8.11,13.96,2.4-2.1,4.71-4.11,6.78-5.91-1.12-2.81-2.09-5.23-3.01-7.76.05-.11.03-.09.03-.09Z"/>
    <path class="cls-8" d="M205.51,54.83c-2.02-2.51-4.21-4.65-7.02-6.33-1.33,4.27-1.57,8.45-.41,12.7-.15.08-.3.16-.45.24-.25-.42-.63-.81-.73-1.26-.78-3.65-.61-7.3.41-10.87.33-1.17-.02-1.62-1-2.1-5.25-2.59-10.84-3.47-16.66-3.49-1.55,4.13-.99,8.37-.77,12.6-1.56-4.09-1.28-8.21-.37-12.56-2.54.27-4.93.53-7.32.78-.04-.14-.08-.28-.12-.42.25-.15.5-.41.77-.45,1.94-.26,3.88-.57,5.83-.68.87-.05,1.24-.32,1.52-1.12,1.16-3.34,2.92-6.34,5.3-8.95.16.06.32.11.48.17-.13.37-.21.78-.41,1.12-1.39,2.4-2.81,4.77-4.2,7.17-.22.38-.3.85-.5,1.43,6.4.09,12.45,1.1,17.88,4.15,1.5-3.02,2.96-5.99,4.43-8.96.23.07.46.15.69.22-.07.37-.06.79-.22,1.12-1.34,2.66-2.71,5.3-4.11,8.03,3.66,2.36,6.61,5.09,8.87,8.56q-.8.39-1.9-1.07Z"/>
    <path class="cls-2" d="M149.46,107.12c-.09-.05-.2-.08-.28-.14-.02-.02.04-.14.06-.22.04.08.09.16.16.32.03.07.05.05.06.04Z"/>
    <path class="cls-17" d="M164.05,148.63c.67-2.79,1.43-5.62,2.19-8.44,1.31-4.87,2.61-9.73,3.92-14.6.12-.44.25-.89.46-1.3,1.02-2.04,2.38-2.17,3.72-.31,2.17,3,4.28,6.04,6.43,9.06,1.7,2.39,3.5,4.71,5.09,7.17,1.42,2.21,4.57,2.11,6.12.08,2.36-3.11,5.02-5.99,7.56-8.95,2.68-3.12,5.34-6.26,8.08-9.33,1.43-1.6,1.93-1.54,3.12.32,2.16,3.38,4.26,6.81,6.37,10.23,2.79,4.51,5.54,9.05,8.35,13.54,1.26,2.01,3.65,2.26,5.68.73,5.46-4.12,10.92-8.24,16.38-12.35,1.19-.9,1.82-.84,2.37.49.46,1.11.72,2.35.86,3.55.46,3.92.83,7.85,1.21,11.78.34,3.52.64,7.05.99,10.57.36,3.57.81,7.13,1.14,10.7.44,4.73-1.07,8.96-6.08,10.3,6.37-5.45,5.85-16.47,1.06-23.25-3.87-5.48-9.36-8.27-15.83-9.27-8.35-1.29-16.44.15-24.39,2.67-2.75.87-5.46,1.87-8.14,2.94-1.01.4-1.67.26-2.49-.39-5.07-4.03-10.43-7.65-16.66-9.62-2.7-.85-5.64-1.25-8.47-1.3-3.78-.06-6.47,2.38-9.05,4.97Z"/>
    <path class="cls-11" d="M169.35,183.26c6.02-10.56,14.42-18.65,24.53-25.1-13.43,15.9-21.35,34.9-30.28,53.35-1.27-10.04.98-19.35,5.75-28.26Z"/>
    <path class="cls-17" d="M246.64,182.56c-.02.2-.11.52-.29.59-4.01,1.57-8.03,3.11-12.17,4.65,2.34-2.37,5.3-3.73,8.63-4.36,1.25-.24,2.47-.58,3.83-.88Z"/>
    <path class="cls-11" d="M194.98,157.41c-.08.16-.14.33-.24.48-.01.02-.16-.04-.24-.07.1-.13.2-.26.39-.39.09,0,.09-.01.09-.01Z"/>
    <path class="cls-11" d="M194.98,157.41c.11-.08.22-.16.33-.24.03.04.06.08.08.12-.09.04-.18.08-.34.12-.08,0-.08,0-.08,0Z"/>
    <path class="cls-15" d="M263.09,276.31c.52,2.69,1.02,5.25,1.44,7.82.07.4-.11,1.14-.38,1.26-3.9,1.68-7.84,3.28-11.41,4.75-1.68-3.64-3.23-6.97-4.74-10.33-.13-.29-.1-.86.1-1.07,3.59-3.83,7.22-7.62,10.84-11.41.03-.03.09-.03.56-.19,1.17,3,2.36,6.03,3.59,9.17Z"/>
    <path class="cls-15" d="M239.7,287.4c2.19-2.32,4.31-4.56,6.75-7.14,1.33,3.31,2.51,6.3,3.73,9.28.37.92.1,1.45-.82,1.74-3.34,1.05-6.68,2.09-10,3.19-.99.33-1.52.1-1.86-.89-.32-.91-1.27-1.92-1.06-2.6.31-.97,1.43-1.69,2.21-2.51.32-.34.66-.66,1.06-1.06Z"/>
    <path class="cls-4" d="M268.22,122.83s.05.04.05.04c0,0-.08-.02-.05-.04Z"/>
    <path class="cls-15" d="M175.07,101.22c-1.55,1.94-2.89,3.9-5.72,3.83-2.42-.06-3.77-1.68-4.94-3.31-2.49-3.45-3.69-7.48-4.12-11.66-.32-3.17-.46-6.38-.31-9.56.26-5.52,1.56-10.8,5-15.28,2.57-3.36,6.33-3.41,9.05,0,2.91,3.64,4.15,7.93,4.76,12.38.89,6.54.63,13.05-1.66,19.33-.53,1.44-1.32,2.79-2.06,4.27Z"/>
  </g>
</svg>