<svg xmlns="http://www.w3.org/2000/svg" viewBox="0 0 297.14 451"><defs><style>.cls-1{fill:none;stroke:#42513f;stroke-miterlimit:10;stroke-width:4px;}.cls-2{fill:#c76ea4;}.cls-3{fill:#2d3a2a;}.cls-4{fill:#64826c;}.cls-5{fill:#ad619f;}.cls-6{fill:#486a52;}.cls-7{fill:#a9bdb1;}.cls-8{fill:#dfe8e7;}.cls-9{fill:#815633;}.cls-10{fill:#b69b64;}.cls-11{fill:#893e29;}.cls-12{fill:#fff;}</style></defs><title>Recurso 10</title><g id="Capa_2" data-name="Capa 2"><g id="Capa_1-2" data-name="Capa 1"><path class="cls-1" d="M232.36,90.67c143.3,60.09-7.6,123.81,21,190.33,16.64,33-21,132-21,132"/><polygon class="cls-2" points="72.76 451 90.43 451 99 446 100 451 223.43 451 204 398 277 225 208 192 83 189 33.13 213.44 93 398 72.76 451"/><polygon class="cls-3" points="86.5 72.57 107 0 251.56 68.08 225.8 128.41 86.5 72.57"/><polygon class="cls-4" points="111.81 191.89 93 206 106 251 143 272 189 218 181 193 111.81 191.89"/><path class="cls-5" d="M112,193l-10,18,38,47,3,15-16-9-9,17L76.75,197.59C70.64,187.54,85.08,176.2,90,169Z"/><path class="cls-6" d="M104,164s-16-10-12,9,10,21,18,20S104,164,104,164Z"/><path class="cls-6" d="M182.83,164s16-10,12,9-10,21-18,20S182.83,164,182.83,164Z"/><path class="cls-5" d="M174.59,193l10,18-38,47-4,14L158,264l10.59,17,41.25-83.4c6.11-10.06-8.33-21.4-13.25-28.6Z"/><path class="cls-7" d="M95.5,142.5l14,60,21,24h27l18-21c5.69-24,17.42-79.72,18-104l-73-4-31,17Z"/><path class="cls-2" d="M53,202,20,221,10,290l5,13L0,390l5,8,6-14,4,4-3,10,13,2v-7l13-1c-.3,2.71-1.11,9.48-2,12l9,3V394l9,2-1,11h9c5.23-2.45,2.34-75.86,3-81l4-18-4-14,7-2,3-21-8-49.88Z"/><path class="cls-8" d="M138.5,165.5c-.58,34.14-51.42,34.2-52,0C87.07,131.36,137.92,131.3,138.5,165.5Z"/><path class="cls-8" d="M200.5,164.5c-.59,34.14-51.41,34.2-52,0C149.08,130.36,199.92,130.3,200.5,164.5Z"/><path class="cls-9" d="M142,111.09l-17.43-5.88,5.43,5.88-18-5.88,5.26,5.88-13.56-2.94-7.31,13.91s-6.76-39.65,4.18-40.65,28.61,5,32.77,11.53a69,69,0,0,0,10.74,12.27l17.42-18.8L183,98.91v9.57l-9.5-3.27-14,8.2-.5-8.2-6.84,6.4.84-9.93Z"/><path class="cls-10" d="M142,111.09l20-22.18,16,17,21.16,50.29,9.93-10.92L202,128.91S193.09,87,175.54,84,146,76.26,142,111.09Z"/><path class="cls-10" d="M142,111.09c-51-48.83-40-9.18-42.5,8S71,138.91,71,138.91l-3-13s19,0,20-23,18-40,38-18l18.08,14Z"/><path class="cls-10" d="M92.5,70.39S58,124.48,49,102c0,0,14.5,17.09,29,9s46-35.09,59.5-12.09S142,74.54,142,74.54,102,56,92.5,70.39Z"/><path class="cls-10" d="M144.94,95.84,142,74.54c65.45-48.11,54.66,86.08,120,18.37C225.35,166.33,175.84,70.18,144.94,95.84Z"/><path class="cls-10" d="M199.5,97c57.49,48.63,3.2,57.28,32.86,61-32.8,6,13-29.09-39.06-30.06Z"/><path class="cls-10" d="M142,74.54s47-22.63,45-37.63C187,36.91,206,76.16,142,74.54Z"/><path class="cls-10" d="M142,74.54C81.47,26.16,78.43,98.05,58,80c0,0-10.51,15,17,7s67-5.11,67-5.11Z"/><path class="cls-9" d="M71,138.91s-20-5.4-3-33.7"/><path class="cls-9" d="M201.4,153.74s13.71-22.07,12.9-34.7,3.13,26.24,3.13,26.24Z"/><polygon class="cls-8" points="224 434 222 442 232.36 444.13 234 435 224 434"/><polygon class="cls-3" points="227 410 241 413 235.65 438 221 436 227 410"/><path class="cls-11" d="M130.43,226.29l-3.16-9.47c-1.89-5.37,5.2-9.53,9.35-6,2.63,1.62,7.26,7.24,10.83,5.57,3.05-.78,9.09-4.67,11.31-.49,4.55,7.26,3.6,4.29-1.28,10.66-1.35,2.68-2.84,6-1.75,9,.42,3-4.54,2.61-3.78-.33,0-.15.84-3.17.8-3.33s-.52-5.15-1-4.89C151.46,226.79,130.5,226.89,130.43,226.29Z"/><path class="cls-12" d="M129.44,185.22a25.82,25.82,0,0,1-10.28,5.41L86.6,163.2a25.76,25.76,0,0,1,3.59-11Z"/><path class="cls-12" d="M138.32,168.51a25.64,25.64,0,0,1-3.82,10.84L95.11,146.18a25.86,25.86,0,0,1,10-5.62Z"/><path class="cls-12" d="M191.37,184.27a25.77,25.77,0,0,1-10.31,5.39l-32.47-27.35a25.72,25.72,0,0,1,3.56-11.08Z"/><path class="cls-12" d="M200.31,167.62a25.57,25.57,0,0,1-3.87,10.81l-39.39-33.2a25.87,25.87,0,0,1,10-5.64Z"/><path class="cls-7" d="M44.08,451,46,365l-26,4-3.23,82Z"/><path class="cls-2" d="M255,392l-3,11-7,4c1.11,11.86,1.7,27,1.9,44h48.16c-.52-37.58-1.22-72.44-2.06-98l-14,2V345l12-7L277,226l-34,16-14,52,10,90Z"/></g></g></svg>