<svg id="Capa_1" data-name="Capa 1" xmlns="http://www.w3.org/2000/svg" viewBox="0 0 586.93 803.24"><defs><style>.cls-1,.cls-10,.cls-6,.cls-9{fill:#f5a582;}.cls-1,.cls-6{stroke:#250c0d;}.cls-1,.cls-10,.cls-11,.cls-12,.cls-13,.cls-16,.cls-17,.cls-2,.cls-3,.cls-4,.cls-5,.cls-6,.cls-8,.cls-9{stroke-miterlimit:10;}.cls-1,.cls-12,.cls-13,.cls-17,.cls-9{stroke-width:0.43px;}.cls-12,.cls-16,.cls-2,.cls-5,.cls-8{fill:none;}.cls-2,.cls-4{stroke:#0391bf;}.cls-2,.cls-4,.cls-5,.cls-8{stroke-width:0.11px;}.cls-13,.cls-15,.cls-3{fill:#fff;}.cls-3{stroke:#d48b0a;stroke-width:0.04px;}.cls-4{fill:#d5d5d4;}.cls-5{stroke:#0b6684;}.cls-16,.cls-6{stroke-width:0.21px;}.cls-11,.cls-7{fill:#010101;}.cls-8{stroke:#df8109;}.cls-10,.cls-11,.cls-12,.cls-13,.cls-16,.cls-17,.cls-9{stroke:#010101;}.cls-10{stroke-width:0.32px;}.cls-11{stroke-width:0.86px;}.cls-14{fill:#27180e;}.cls-17{fill:#210f0b;}</style></defs><polygon class="cls-1" points="574.42 567.76 520.16 570.81 532.37 727.93 586.33 726.73 574.42 567.76"/><circle class="cls-1" cx="561.57" cy="736.95" r="25.14"/><polygon class="cls-1" points="0.23 571.84 54.37 567.01 65.02 724.24 11.45 730.85 0.23 571.84"/><circle class="cls-1" cx="41.4" cy="738.27" r="26.44"/><path class="cls-2" d="M5.58,763.86" transform="translate(0.23 -57.59)"/><path class="cls-3" d="M41,761.27l-1.4.18a1.94,1.94,0,0,1-2.16-1.69h0c0-.06,0-.11,0-.17a2,2,0,0,1,1.71-2l1.4-.18a1.94,1.94,0,0,1,2.16,1.69h0A1.94,1.94,0,0,1,41,761.27Z" transform="translate(0.23 -57.59)"/><path class="cls-3" d="M37.43,759.59l2.11-.19s0-1.7-.52-1.65" transform="translate(0.23 -57.59)"/><path class="cls-3" d="M42.34,758.73s-2.07,0-1.67.86l.5,1.48" transform="translate(0.23 -57.59)"/><path class="cls-3" d="M38.37,761s1-.83,1.35-.57a1.16,1.16,0,0,1,.41.88" transform="translate(0.23 -57.59)"/><path class="cls-3" d="M37.36,759.06s-1.42-.14-1.55.32c0,0-.74,1.21.72,1.11,0,0,.46-.68.94-.54" transform="translate(0.23 -57.59)"/><path class="cls-3" d="M37.52,758.36s1.55-2.7,3.29-1.63c0,0-1.45.33-.9.83" transform="translate(0.23 -57.59)"/><path class="cls-3" d="M37.86,761.09s2.16,2.24,3.59.78c0,0-1.49,0-1.08-.59" transform="translate(0.23 -57.59)"/><path class="cls-3" d="M41.26,757.33s2.43-1.07,2.29.28c0,0-1.74-.6-1.29.49" transform="translate(0.23 -57.59)"/><path class="cls-3" d="M42.1,760.72s2.62.45,2.16-.83c0,0-1.55,1-1.38-.15" transform="translate(0.23 -57.59)"/><circle class="cls-4" cx="8.08" cy="706.1" r="1.24"/><circle class="cls-4" cx="10.55" cy="705.92" r="1.24"/><circle class="cls-5" cx="12.41" cy="705.6" r="0.18"/><circle class="cls-5" cx="13.13" cy="705.54" r="0.18"/><circle class="cls-4" cx="14.94" cy="705.23" r="1.24"/><circle class="cls-4" cx="17.71" cy="705.03" r="1.24"/><circle class="cls-5" cx="19.46" cy="704.72" r="0.18"/><circle class="cls-5" cx="20.2" cy="704.57" r="0.18"/><circle class="cls-4" cx="22.03" cy="704.34" r="1.24"/><circle class="cls-4" cx="24.76" cy="703.97" r="1.24"/><circle class="cls-5" cx="26.6" cy="703.66" r="0.18"/><circle class="cls-5" cx="27.37" cy="703.6" r="0.18"/><circle class="cls-4" cx="32.03" cy="702.81" r="1.24"/><circle class="cls-5" cx="35.33" cy="702.29" r="0.18"/><circle class="cls-5" cx="34.61" cy="702.44" r="0.18"/><circle class="cls-5" cx="33.85" cy="702.58" r="0.18"/><circle class="cls-4" cx="29.15" cy="703.2" r="1.24"/><circle class="cls-5" cx="6.27" cy="706.24" r="0.18"/><circle class="cls-5" cx="43.69" cy="700.95" r="0.18"/><circle class="cls-4" cx="47" cy="700.28" r="1.24"/><circle class="cls-5" cx="44.47" cy="700.81" r="0.18"/><circle class="cls-4" cx="49.81" cy="699.66" r="1.24"/><circle class="cls-5" cx="45.21" cy="700.66" r="0.18"/><circle class="cls-4" cx="54.13" cy="698.91" r="1.24"/><circle class="cls-5" cx="51.61" cy="699.37" r="0.18"/><circle class="cls-4" cx="56.95" cy="698.3" r="1.24"/><circle class="cls-5" cx="52.35" cy="699.22" r="0.18"/><circle class="cls-4" cx="61.18" cy="697.39" r="1.24"/><circle class="cls-5" cx="58.67" cy="697.97" r="0.18"/><circle class="cls-4" cx="64" cy="696.76" r="1.24"/><circle class="cls-5" cx="59.41" cy="697.82" r="0.18"/><circle class="cls-5" cx="65.77" cy="696.28" r="0.18"/><polygon class="cls-1" points="136.51 355.69 8.09 547.9 56.04 575.38 182.94 389.15 173.9 365.25 157.3 355.69 136.51 355.69"/><circle class="cls-6" cx="29.16" cy="568.28" r="28.58"/><path class="cls-7" d="M205.2,420.64s-5.23-41.56-67.42-28.43c0,0-35.24,41.07-38.24,73l63.79,40.92S206.06,467.89,205.2,420.64Z" transform="translate(0.23 -57.59)"/><polygon class="cls-1" points="452.47 333.63 567.8 540.13 519.83 568.54 399.91 363.53 410.57 340.31 427.79 331.92 452.47 333.63"/><circle class="cls-6" cx="547.61" cy="559.87" r="28.58"/><path class="cls-7" d="M397.2,418.08s5.23-41.56,67.42-28.44c0,0,35.24,41.08,38.24,73l-63.79,40.92S396.34,465.32,397.2,418.08Z" transform="translate(0.23 -57.59)"/><path class="cls-8" d="M239.64,826.4" transform="translate(0.23 -57.59)"/><path class="cls-8" d="M220.07,795.29" transform="translate(0.23 -57.59)"/><path class="cls-8" d="M240.79,826.4" transform="translate(0.23 -57.59)"/><path class="cls-8" d="M221.22,795.29" transform="translate(0.23 -57.59)"/><path class="cls-8" d="M301.62,830.7" transform="translate(0.23 -57.59)"/><path class="cls-9" d="M277.15,365.69s-.13,22-4.56,29.18c-6.73,10.87,53.68,9.73,52.1,0,0,0-6,.17-5.19-29.18Z" transform="translate(0.23 -57.59)"/><rect class="cls-10" x="153.3" y="176.5" width="52.54" height="77.16" rx="12.83"/><rect class="cls-10" x="397.72" y="176.5" width="52.54" height="77.16" rx="11.59"/><rect class="cls-10" x="179.57" y="69.09" width="244.42" height="244.42" rx="116.69"/><path class="cls-11" d="M259.41,197.42s-32.56-18.06-77.44,0l1.64-18.6s20.25-18.06,75.8,0C259.41,178.82,262.42,180.73,259.41,197.42Z" transform="translate(0.23 -57.59)"/><path class="cls-11" d="M317.38,199.79s35-19.66,83.22,0l-1.76-20.26s-21.76-19.67-81.46,0C317.38,179.53,314.15,181.62,317.38,199.79Z" transform="translate(0.23 -57.59)"/><path class="cls-12" d="M282,283.52s16.21-13.79,32.46,0" transform="translate(0.23 -57.59)"/><path class="cls-12" d="M272.54,311.25s23.88,14.23,43.41,0" transform="translate(0.23 -57.59)"/><ellipse class="cls-13" cx="354.67" cy="186.22" rx="39.95" ry="39.71"/><circle class="cls-14" cx="344.27" cy="186.22" r="17.79"/><circle class="cls-15" cx="336.7" cy="181.87" r="5.37"/><ellipse class="cls-13" cx="245.79" cy="187.25" rx="39.95" ry="39.71"/><circle class="cls-14" cx="235.39" cy="187.25" r="17.79"/><circle class="cls-15" cx="227.82" cy="182.9" r="5.37"/><path class="cls-16" d="M161.45,251.6s11.39-21.77,17.89,17.51" transform="translate(0.23 -57.59)"/><path class="cls-16" d="M175.64,253.85l-9.13,24.29s-2.71-.09,14.52,13.3" transform="translate(0.23 -57.59)"/><path class="cls-16" d="M441.78,248.64s-11.38-21.77-17.89,17.52" transform="translate(0.23 -57.59)"/><path class="cls-16" d="M427.6,250.89l9.12,24.3s2.72-.09-14.51,13.29" transform="translate(0.23 -57.59)"/><path class="cls-17" d="M126.4,58.56s-9.06,32,23,56.11c0,0-39,20.88-66.21,8.49,0,0,4.19,47,51.58,53.5,0,0-26.49,18.27-27.18,61.34,0,0,14.63-19.58,28.57-22.84,0,0-13.94,47-6.27,51.55,0,0,20.21-27.41,33.45-26.1,0,0-7.47-24.32-6.27-22.19,0,0-.7,22.84,38.33,59.38,0,0-6-25.06-9.73-49.78-2.87-18.73-3.7-41.75-2.66-37.15,0,0-1.55,23.64,4.72,28.86,0,0,36.24-73.08,39.73-65.91,0,0,2.79,27.41,16,45.68,0,0-2.09-60.68,7-60,0,0,27.87,57.42,59.24,60.68,0,0-15.34-33.28-8.37-57.42,0,0,67.61,50.24,65.52,54.81s-14.64-62.64-23.7-60c0,0,61.33,64,56.45,65.9,0,0-.7-16.31-18.82-55.46,0,0,43.77,77,19.1,137,0,0,23-21.87,33-40.19,4.46-8.23,6.73-21.6,2.3-21.8v12.88s14.79,6,14.79,20.91c0,0,39.23-118.29-24.19-146.35,0,0,57.84-20.88,14.63-44.37,0,0,7,17.62-17.42,39.81,0,0-.7-29-138.34-31.32C284.61,74.55,130.59,83.35,126.4,58.56Z" transform="translate(0.23 -57.59)"/><path class="cls-7" d="M356.91,385.55l-121.07-1.23a110.11,110.11,0,0,0-33.38,4.81l-49.39,8.65,17.33,85.83s10.16,320.38-4,310.4H432.84s-22.75-56.11-8.95-312.39c0,0-1.79-68.2,13-79l-29.73-6.16C394,390.62,371.3,385.7,356.91,385.55Z" transform="translate(0.23 -57.59)"/><path class="cls-8" d="M195.75,794.09S203.46,820,174,824.23" transform="translate(0.23 -57.59)"/><path class="cls-8" d="M404.74,794.14s-7.67,30.9,22.37,29.8" transform="translate(0.23 -57.59)"/><path class="cls-8" d="M405.49,794.14s-7,30.25,21.62,29.19" transform="translate(0.23 -57.59)"/><path class="cls-8" d="M194.83,794.09s8.48,24.93-21,29.14" transform="translate(0.23 -57.59)"/><rect class="cls-8" x="301.01" y="736.42" width="0.83" height="66.76"/></svg>